ISO-10303-21;
HEADER;
FILE_DESCRIPTION(('FreeCAD Model'),'2;1');
FILE_NAME('Open CASCADE Shape Model','2025-01-09T12:58:04',(''),(''),
  'Open CASCADE STEP processor 7.8','FreeCAD','Unknown');
FILE_SCHEMA(('AUTOMOTIVE_DESIGN { 1 0 10303 214 1 1 1 1 }'));
ENDSEC;
DATA;
#1 = APPLICATION_PROTOCOL_DEFINITION('international standard',
  'automotive_design',2000,#2);
#2 = APPLICATION_CONTEXT(
  'core data for automotive mechanical design processes');
#3 = SHAPE_DEFINITION_REPRESENTATION(#4,#10);
#4 = PRODUCT_DEFINITION_SHAPE('','',#5);
#5 = PRODUCT_DEFINITION('design','',#6,#9);
#6 = PRODUCT_DEFINITION_FORMATION('','',#7);
#7 = PRODUCT('M20_999xxxx_Gold','M20_999xxxx_Gold','',(#8));
#8 = PRODUCT_CONTEXT('',#2,'mechanical');
#9 = PRODUCT_DEFINITION_CONTEXT('part definition',#2,'design');
#10 = SHAPE_REPRESENTATION('',(#11,#15,#19),#23);
#11 = AXIS2_PLACEMENT_3D('',#12,#13,#14);
#12 = CARTESIAN_POINT('',(0.,0.,0.));
#13 = DIRECTION('',(0.,0.,1.));
#14 = DIRECTION('',(1.,0.,-0.));
#15 = AXIS2_PLACEMENT_3D('',#16,#17,#18);
#16 = CARTESIAN_POINT('',(0.,0.,0.));
#17 = DIRECTION('',(0.,0.,1.));
#18 = DIRECTION('',(1.,0.,0.));
#19 = AXIS2_PLACEMENT_3D('',#20,#21,#22);
#20 = CARTESIAN_POINT('',(0.,0.,0.));
#21 = DIRECTION('',(0.,0.,1.));
#22 = DIRECTION('',(1.,0.,0.));
#23 = ( GEOMETRIC_REPRESENTATION_CONTEXT(3) 
GLOBAL_UNCERTAINTY_ASSIGNED_CONTEXT((#27)) GLOBAL_UNIT_ASSIGNED_CONTEXT(
(#24,#25,#26)) REPRESENTATION_CONTEXT('Context #1',
  '3D Context with UNIT and UNCERTAINTY') );
#24 = ( LENGTH_UNIT() NAMED_UNIT(*) SI_UNIT(.MILLI.,.METRE.) );
#25 = ( NAMED_UNIT(*) PLANE_ANGLE_UNIT() SI_UNIT($,.RADIAN.) );
#26 = ( NAMED_UNIT(*) SI_UNIT($,.STERADIAN.) SOLID_ANGLE_UNIT() );
#27 = UNCERTAINTY_MEASURE_WITH_UNIT(LENGTH_MEASURE(2.E-07),#24,
  'distance_accuracy_value','confusion accuracy');
#28 = PRODUCT_RELATED_PRODUCT_CATEGORY('part',$,(#7));
#29 = SHAPE_DEFINITION_REPRESENTATION(#30,#36);
#30 = PRODUCT_DEFINITION_SHAPE('','',#31);
#31 = PRODUCT_DEFINITION('design','',#32,#35);
#32 = PRODUCT_DEFINITION_FORMATION('','',#33);
#33 = PRODUCT('Array','Array','',(#34));
#34 = PRODUCT_CONTEXT('',#2,'mechanical');
#35 = PRODUCT_DEFINITION_CONTEXT('part definition',#2,'design');
#36 = SHAPE_REPRESENTATION('',(#11,#37,#41,#45,#49,#53,#57,#61,#65),#69
  );
#37 = AXIS2_PLACEMENT_3D('',#38,#39,#40);
#38 = CARTESIAN_POINT('',(-8.89,0.,0.));
#39 = DIRECTION('',(0.,0.,1.));
#40 = DIRECTION('',(1.,0.,0.));
#41 = AXIS2_PLACEMENT_3D('',#42,#43,#44);
#42 = CARTESIAN_POINT('',(-6.35,0.,0.));
#43 = DIRECTION('',(0.,0.,1.));
#44 = DIRECTION('',(1.,0.,0.));
#45 = AXIS2_PLACEMENT_3D('',#46,#47,#48);
#46 = CARTESIAN_POINT('',(-3.81,0.,0.));
#47 = DIRECTION('',(0.,0.,1.));
#48 = DIRECTION('',(1.,0.,0.));
#49 = AXIS2_PLACEMENT_3D('',#50,#51,#52);
#50 = CARTESIAN_POINT('',(-1.27,0.,0.));
#51 = DIRECTION('',(0.,0.,1.));
#52 = DIRECTION('',(1.,0.,0.));
#53 = AXIS2_PLACEMENT_3D('',#54,#55,#56);
#54 = CARTESIAN_POINT('',(1.27,0.,0.));
#55 = DIRECTION('',(0.,0.,1.));
#56 = DIRECTION('',(1.,0.,0.));
#57 = AXIS2_PLACEMENT_3D('',#58,#59,#60);
#58 = CARTESIAN_POINT('',(3.81,0.,0.));
#59 = DIRECTION('',(0.,0.,1.));
#60 = DIRECTION('',(1.,0.,0.));
#61 = AXIS2_PLACEMENT_3D('',#62,#63,#64);
#62 = CARTESIAN_POINT('',(6.35,0.,0.));
#63 = DIRECTION('',(0.,0.,1.));
#64 = DIRECTION('',(1.,0.,0.));
#65 = AXIS2_PLACEMENT_3D('',#66,#67,#68);
#66 = CARTESIAN_POINT('',(8.89,0.,0.));
#67 = DIRECTION('',(0.,0.,1.));
#68 = DIRECTION('',(1.,0.,0.));
#69 = ( GEOMETRIC_REPRESENTATION_CONTEXT(3) 
GLOBAL_UNCERTAINTY_ASSIGNED_CONTEXT((#73)) GLOBAL_UNIT_ASSIGNED_CONTEXT(
(#70,#71,#72)) REPRESENTATION_CONTEXT('Context #1',
  '3D Context with UNIT and UNCERTAINTY') );
#70 = ( LENGTH_UNIT() NAMED_UNIT(*) SI_UNIT(.MILLI.,.METRE.) );
#71 = ( NAMED_UNIT(*) PLANE_ANGLE_UNIT() SI_UNIT($,.RADIAN.) );
#72 = ( NAMED_UNIT(*) SI_UNIT($,.STERADIAN.) SOLID_ANGLE_UNIT() );
#73 = UNCERTAINTY_MEASURE_WITH_UNIT(LENGTH_MEASURE(5.E-07),#70,
  'distance_accuracy_value','confusion accuracy');
#74 = CONTEXT_DEPENDENT_SHAPE_REPRESENTATION(#75,#77);
#75 = ( REPRESENTATION_RELATIONSHIP('','',#36,#10) 
REPRESENTATION_RELATIONSHIP_WITH_TRANSFORMATION(#76) 
SHAPE_REPRESENTATION_RELATIONSHIP() );
#76 = ITEM_DEFINED_TRANSFORMATION('','',#11,#15);
#77 = PRODUCT_DEFINITION_SHAPE('Placement','Placement of an item',#78);
#78 = NEXT_ASSEMBLY_USAGE_OCCURRENCE('5231','Array','',#5,#31,$);
#79 = PRODUCT_RELATED_PRODUCT_CATEGORY('part',$,(#33));
#80 = SHAPE_DEFINITION_REPRESENTATION(#81,#87);
#81 = PRODUCT_DEFINITION_SHAPE('','',#82);
#82 = PRODUCT_DEFINITION('design','',#83,#86);
#83 = PRODUCT_DEFINITION_FORMATION('','',#84);
#84 = PRODUCT('Body','Body','',(#85));
#85 = PRODUCT_CONTEXT('',#2,'mechanical');
#86 = PRODUCT_DEFINITION_CONTEXT('part definition',#2,'design');
#87 = ADVANCED_BREP_SHAPE_REPRESENTATION('',(#11,#88),#1179);
#88 = MANIFOLD_SOLID_BREP('',#89);
#89 = CLOSED_SHELL('',(#90,#155,#252,#276,#332,#356,#380,#480,#522,#562,
    #618,#642,#675,#706,#730,#754,#771,#795,#819,#843,#876,#900,#916,
    #1004,#1028,#1045,#1057,#1081,#1105,#1122,#1155,#1167));
#90 = ADVANCED_FACE('',(#91),#150,.F.);
#91 = FACE_BOUND('',#92,.F.);
#92 = EDGE_LOOP('',(#93,#103,#111,#119,#127,#135));
#93 = ORIENTED_EDGE('',*,*,#94,.F.);
#94 = EDGE_CURVE('',#95,#97,#99,.T.);
#95 = VERTEX_POINT('',#96);
#96 = CARTESIAN_POINT('',(-0.77,0.64,-1.27));
#97 = VERTEX_POINT('',#98);
#98 = CARTESIAN_POINT('',(-1.24,0.64,-0.8));
#99 = LINE('',#100,#101);
#100 = CARTESIAN_POINT('',(-0.89,0.64,-1.15));
#101 = VECTOR('',#102,1.);
#102 = DIRECTION('',(-0.707106781187,0.,0.707106781187));
#103 = ORIENTED_EDGE('',*,*,#104,.T.);
#104 = EDGE_CURVE('',#95,#105,#107,.T.);
#105 = VERTEX_POINT('',#106);
#106 = CARTESIAN_POINT('',(-0.77,2.64,-1.27));
#107 = LINE('',#108,#109);
#108 = CARTESIAN_POINT('',(-0.77,0.64,-1.27));
#109 = VECTOR('',#110,1.);
#110 = DIRECTION('',(0.,1.,0.));
#111 = ORIENTED_EDGE('',*,*,#112,.T.);
#112 = EDGE_CURVE('',#105,#113,#115,.T.);
#113 = VERTEX_POINT('',#114);
#114 = CARTESIAN_POINT('',(-1.02,2.64,-1.02));
#115 = LINE('',#116,#117);
#116 = CARTESIAN_POINT('',(-1.02,2.64,-1.02));
#117 = VECTOR('',#118,1.);
#118 = DIRECTION('',(-0.707106781187,0.,0.707106781187));
#119 = ORIENTED_EDGE('',*,*,#120,.T.);
#120 = EDGE_CURVE('',#113,#121,#123,.T.);
#121 = VERTEX_POINT('',#122);
#122 = CARTESIAN_POINT('',(-1.27,2.39,-0.77));
#123 = LINE('',#124,#125);
#124 = CARTESIAN_POINT('',(-1.436666666667,2.223333333333,
    -0.603333333333));
#125 = VECTOR('',#126,1.);
#126 = DIRECTION('',(-0.57735026919,-0.57735026919,0.57735026919));
#127 = ORIENTED_EDGE('',*,*,#128,.F.);
#128 = EDGE_CURVE('',#129,#121,#131,.T.);
#129 = VERTEX_POINT('',#130);
#130 = CARTESIAN_POINT('',(-1.27,0.89,-0.77));
#131 = LINE('',#132,#133);
#132 = CARTESIAN_POINT('',(-1.27,0.64,-0.77));
#133 = VECTOR('',#134,1.);
#134 = DIRECTION('',(0.,1.,0.));
#135 = ORIENTED_EDGE('',*,*,#136,.T.);
#136 = EDGE_CURVE('',#129,#137,#139,.T.);
#137 = VERTEX_POINT('',#138);
#138 = CARTESIAN_POINT('',(-1.093223304703,0.64,-0.946776695297));
#139 = B_SPLINE_CURVE_WITH_KNOTS('',9,(#140,#141,#142,#143,#144,#145,
    #146,#147,#148,#149),.UNSPECIFIED.,.F.,.F.,(10,10),(0.,1.),
  .PIECEWISE_BEZIER_KNOTS.);
#140 = CARTESIAN_POINT('',(-1.27,0.89,-0.77));
#141 = CARTESIAN_POINT('',(-1.27,0.846146013747,-0.77));
#142 = CARTESIAN_POINT('',(-1.264583736288,0.802291548558,
    -0.775416263712));
#143 = CARTESIAN_POINT('',(-1.253207351833,0.759968980314,
    -0.786792648167));
#144 = CARTESIAN_POINT('',(-1.235723988261,0.721230228965,
    -0.804276011739));
#145 = CARTESIAN_POINT('',(-1.212561554261,0.688473600665,
    -0.827438445739));
#146 = CARTESIAN_POINT('',(-1.185169120488,0.663748390786,
    -0.854830879512));
#147 = CARTESIAN_POINT('',(-1.155242545486,0.647659753599,
    -0.884757454514));
#148 = CARTESIAN_POINT('',(-1.124232755765,0.64,-0.915767244235));
#149 = CARTESIAN_POINT('',(-1.093223304703,0.64,-0.946776695297));
#150 = PLANE('',#151);
#151 = AXIS2_PLACEMENT_3D('',#152,#153,#154);
#152 = CARTESIAN_POINT('',(-1.02,0.64,-1.02));
#153 = DIRECTION('',(0.707106781187,0.,0.707106781187));
#154 = DIRECTION('',(0.,1.,0.));
#155 = ADVANCED_FACE('',(#156,#213),#247,.T.);
#156 = FACE_BOUND('',#157,.T.);
#157 = EDGE_LOOP('',(#158,#159,#167,#175,#183,#191,#199,#207));
#158 = ORIENTED_EDGE('',*,*,#112,.T.);
#159 = ORIENTED_EDGE('',*,*,#160,.T.);
#160 = EDGE_CURVE('',#113,#161,#163,.T.);
#161 = VERTEX_POINT('',#162);
#162 = CARTESIAN_POINT('',(-1.02,2.64,1.02));
#163 = LINE('',#164,#165);
#164 = CARTESIAN_POINT('',(-1.02,2.64,-0.77));
#165 = VECTOR('',#166,1.);
#166 = DIRECTION('',(0.,0.,1.));
#167 = ORIENTED_EDGE('',*,*,#168,.T.);
#168 = EDGE_CURVE('',#161,#169,#171,.T.);
#169 = VERTEX_POINT('',#170);
#170 = CARTESIAN_POINT('',(-0.77,2.64,1.27));
#171 = LINE('',#172,#173);
#172 = CARTESIAN_POINT('',(-1.655,2.64,0.385));
#173 = VECTOR('',#174,1.);
#174 = DIRECTION('',(0.707106781187,0.,0.707106781187));
#175 = ORIENTED_EDGE('',*,*,#176,.T.);
#176 = EDGE_CURVE('',#169,#177,#179,.T.);
#177 = VERTEX_POINT('',#178);
#178 = CARTESIAN_POINT('',(0.77,2.64,1.27));
#179 = LINE('',#180,#181);
#180 = CARTESIAN_POINT('',(-1.27,2.64,1.27));
#181 = VECTOR('',#182,1.);
#182 = DIRECTION('',(1.,0.,0.));
#183 = ORIENTED_EDGE('',*,*,#184,.F.);
#184 = EDGE_CURVE('',#185,#177,#187,.T.);
#185 = VERTEX_POINT('',#186);
#186 = CARTESIAN_POINT('',(1.02,2.64,1.02));
#187 = LINE('',#188,#189);
#188 = CARTESIAN_POINT('',(1.02,2.64,1.02));
#189 = VECTOR('',#190,1.);
#190 = DIRECTION('',(-0.707106781187,0.,0.707106781187));
#191 = ORIENTED_EDGE('',*,*,#192,.F.);
#192 = EDGE_CURVE('',#193,#185,#195,.T.);
#193 = VERTEX_POINT('',#194);
#194 = CARTESIAN_POINT('',(1.02,2.64,-1.02));
#195 = LINE('',#196,#197);
#196 = CARTESIAN_POINT('',(1.02,2.64,-0.77));
#197 = VECTOR('',#198,1.);
#198 = DIRECTION('',(0.,0.,1.));
#199 = ORIENTED_EDGE('',*,*,#200,.F.);
#200 = EDGE_CURVE('',#201,#193,#203,.T.);
#201 = VERTEX_POINT('',#202);
#202 = CARTESIAN_POINT('',(0.77,2.64,-1.27));
#203 = LINE('',#204,#205);
#204 = CARTESIAN_POINT('',(0.385,2.64,-1.655));
#205 = VECTOR('',#206,1.);
#206 = DIRECTION('',(0.707106781187,0.,0.707106781187));
#207 = ORIENTED_EDGE('',*,*,#208,.F.);
#208 = EDGE_CURVE('',#105,#201,#209,.T.);
#209 = LINE('',#210,#211);
#210 = CARTESIAN_POINT('',(-1.27,2.64,-1.27));
#211 = VECTOR('',#212,1.);
#212 = DIRECTION('',(1.,0.,0.));
#213 = FACE_BOUND('',#214,.T.);
#214 = EDGE_LOOP('',(#215,#225,#233,#241));
#215 = ORIENTED_EDGE('',*,*,#216,.F.);
#216 = EDGE_CURVE('',#217,#219,#221,.T.);
#217 = VERTEX_POINT('',#218);
#218 = CARTESIAN_POINT('',(-0.32,2.64,-0.32));
#219 = VERTEX_POINT('',#220);
#220 = CARTESIAN_POINT('',(-0.32,2.64,0.32));
#221 = LINE('',#222,#223);
#222 = CARTESIAN_POINT('',(-0.32,2.64,-0.32));
#223 = VECTOR('',#224,1.);
#224 = DIRECTION('',(0.,0.,1.));
#225 = ORIENTED_EDGE('',*,*,#226,.F.);
#226 = EDGE_CURVE('',#227,#217,#229,.T.);
#227 = VERTEX_POINT('',#228);
#228 = CARTESIAN_POINT('',(0.32,2.64,-0.32));
#229 = LINE('',#230,#231);
#230 = CARTESIAN_POINT('',(0.32,2.64,-0.32));
#231 = VECTOR('',#232,1.);
#232 = DIRECTION('',(-1.,0.,0.));
#233 = ORIENTED_EDGE('',*,*,#234,.F.);
#234 = EDGE_CURVE('',#235,#227,#237,.T.);
#235 = VERTEX_POINT('',#236);
#236 = CARTESIAN_POINT('',(0.32,2.64,0.32));
#237 = LINE('',#238,#239);
#238 = CARTESIAN_POINT('',(0.32,2.64,0.32));
#239 = VECTOR('',#240,1.);
#240 = DIRECTION('',(0.,0.,-1.));
#241 = ORIENTED_EDGE('',*,*,#242,.F.);
#242 = EDGE_CURVE('',#219,#235,#243,.T.);
#243 = LINE('',#244,#245);
#244 = CARTESIAN_POINT('',(-0.32,2.64,0.32));
#245 = VECTOR('',#246,1.);
#246 = DIRECTION('',(1.,0.,0.));
#247 = PLANE('',#248);
#248 = AXIS2_PLACEMENT_3D('',#249,#250,#251);
#249 = CARTESIAN_POINT('',(-1.27,2.64,-1.27));
#250 = DIRECTION('',(0.,1.,0.));
#251 = DIRECTION('',(1.,0.,0.));
#252 = ADVANCED_FACE('',(#253),#271,.T.);
#253 = FACE_BOUND('',#254,.F.);
#254 = EDGE_LOOP('',(#255,#256,#257,#265));
#255 = ORIENTED_EDGE('',*,*,#120,.F.);
#256 = ORIENTED_EDGE('',*,*,#160,.T.);
#257 = ORIENTED_EDGE('',*,*,#258,.T.);
#258 = EDGE_CURVE('',#161,#259,#261,.T.);
#259 = VERTEX_POINT('',#260);
#260 = CARTESIAN_POINT('',(-1.27,2.39,0.77));
#261 = LINE('',#262,#263);
#262 = CARTESIAN_POINT('',(-1.693333333333,1.966666666667,0.346666666667
    ));
#263 = VECTOR('',#264,1.);
#264 = DIRECTION('',(-0.57735026919,-0.57735026919,-0.57735026919));
#265 = ORIENTED_EDGE('',*,*,#266,.F.);
#266 = EDGE_CURVE('',#121,#259,#267,.T.);
#267 = LINE('',#268,#269);
#268 = CARTESIAN_POINT('',(-1.27,2.39,-0.77));
#269 = VECTOR('',#270,1.);
#270 = DIRECTION('',(0.,0.,1.));
#271 = PLANE('',#272);
#272 = AXIS2_PLACEMENT_3D('',#273,#274,#275);
#273 = CARTESIAN_POINT('',(-1.145,2.515,-0.77));
#274 = DIRECTION('',(-0.707106781187,0.707106781187,0.));
#275 = DIRECTION('',(-0.,-0.,-1.));
#276 = ADVANCED_FACE('',(#277),#327,.F.);
#277 = FACE_BOUND('',#278,.F.);
#278 = EDGE_LOOP('',(#279,#287,#295,#303,#311,#319,#325,#326));
#279 = ORIENTED_EDGE('',*,*,#280,.F.);
#280 = EDGE_CURVE('',#281,#95,#283,.T.);
#281 = VERTEX_POINT('',#282);
#282 = CARTESIAN_POINT('',(-0.75,0.64,-1.27));
#283 = LINE('',#284,#285);
#284 = CARTESIAN_POINT('',(-0.75,0.64,-1.27));
#285 = VECTOR('',#286,1.);
#286 = DIRECTION('',(-1.,0.,0.));
#287 = ORIENTED_EDGE('',*,*,#288,.F.);
#288 = EDGE_CURVE('',#289,#281,#291,.T.);
#289 = VERTEX_POINT('',#290);
#290 = CARTESIAN_POINT('',(-0.75,0.,-1.27));
#291 = LINE('',#292,#293);
#292 = CARTESIAN_POINT('',(-0.75,0.,-1.27));
#293 = VECTOR('',#294,1.);
#294 = DIRECTION('',(0.,1.,0.));
#295 = ORIENTED_EDGE('',*,*,#296,.F.);
#296 = EDGE_CURVE('',#297,#289,#299,.T.);
#297 = VERTEX_POINT('',#298);
#298 = CARTESIAN_POINT('',(0.75,0.,-1.27));
#299 = LINE('',#300,#301);
#300 = CARTESIAN_POINT('',(0.75,0.,-1.27));
#301 = VECTOR('',#302,1.);
#302 = DIRECTION('',(-1.,0.,0.));
#303 = ORIENTED_EDGE('',*,*,#304,.F.);
#304 = EDGE_CURVE('',#305,#297,#307,.T.);
#305 = VERTEX_POINT('',#306);
#306 = CARTESIAN_POINT('',(0.75,0.64,-1.27));
#307 = LINE('',#308,#309);
#308 = CARTESIAN_POINT('',(0.75,0.64,-1.27));
#309 = VECTOR('',#310,1.);
#310 = DIRECTION('',(0.,-1.,0.));
#311 = ORIENTED_EDGE('',*,*,#312,.F.);
#312 = EDGE_CURVE('',#313,#305,#315,.T.);
#313 = VERTEX_POINT('',#314);
#314 = CARTESIAN_POINT('',(0.77,0.64,-1.27));
#315 = LINE('',#316,#317);
#316 = CARTESIAN_POINT('',(1.27,0.64,-1.27));
#317 = VECTOR('',#318,1.);
#318 = DIRECTION('',(-1.,0.,0.));
#319 = ORIENTED_EDGE('',*,*,#320,.F.);
#320 = EDGE_CURVE('',#201,#313,#321,.T.);
#321 = LINE('',#322,#323);
#322 = CARTESIAN_POINT('',(0.77,2.64,-1.27));
#323 = VECTOR('',#324,1.);
#324 = DIRECTION('',(0.,-1.,0.));
#325 = ORIENTED_EDGE('',*,*,#208,.F.);
#326 = ORIENTED_EDGE('',*,*,#104,.F.);
#327 = PLANE('',#328);
#328 = AXIS2_PLACEMENT_3D('',#329,#330,#331);
#329 = CARTESIAN_POINT('',(3.2E-16,1.384247104247,-1.27));
#330 = DIRECTION('',(0.,0.,1.));
#331 = DIRECTION('',(1.,0.,0.));
#332 = ADVANCED_FACE('',(#333),#351,.T.);
#333 = FACE_BOUND('',#334,.T.);
#334 = EDGE_LOOP('',(#335,#336,#344,#350));
#335 = ORIENTED_EDGE('',*,*,#128,.F.);
#336 = ORIENTED_EDGE('',*,*,#337,.T.);
#337 = EDGE_CURVE('',#129,#338,#340,.T.);
#338 = VERTEX_POINT('',#339);
#339 = CARTESIAN_POINT('',(-1.27,0.89,0.77));
#340 = LINE('',#341,#342);
#341 = CARTESIAN_POINT('',(-1.27,0.89,-0.77));
#342 = VECTOR('',#343,1.);
#343 = DIRECTION('',(0.,0.,1.));
#344 = ORIENTED_EDGE('',*,*,#345,.T.);
#345 = EDGE_CURVE('',#338,#259,#346,.T.);
#346 = LINE('',#347,#348);
#347 = CARTESIAN_POINT('',(-1.27,0.64,0.77));
#348 = VECTOR('',#349,1.);
#349 = DIRECTION('',(0.,1.,0.));
#350 = ORIENTED_EDGE('',*,*,#266,.F.);
#351 = PLANE('',#352);
#352 = AXIS2_PLACEMENT_3D('',#353,#354,#355);
#353 = CARTESIAN_POINT('',(-1.27,0.64,-1.27));
#354 = DIRECTION('',(-1.,0.,0.));
#355 = DIRECTION('',(0.,1.,0.));
#356 = ADVANCED_FACE('',(#357),#375,.T.);
#357 = FACE_BOUND('',#358,.T.);
#358 = EDGE_LOOP('',(#359,#360,#368,#374));
#359 = ORIENTED_EDGE('',*,*,#280,.F.);
#360 = ORIENTED_EDGE('',*,*,#361,.T.);
#361 = EDGE_CURVE('',#281,#362,#364,.T.);
#362 = VERTEX_POINT('',#363);
#363 = CARTESIAN_POINT('',(-0.75,0.64,-0.8));
#364 = LINE('',#365,#366);
#365 = CARTESIAN_POINT('',(-0.75,0.64,-1.27));
#366 = VECTOR('',#367,1.);
#367 = DIRECTION('',(0.,0.,1.));
#368 = ORIENTED_EDGE('',*,*,#369,.T.);
#369 = EDGE_CURVE('',#362,#97,#370,.T.);
#370 = LINE('',#371,#372);
#371 = CARTESIAN_POINT('',(0.75,0.64,-0.8));
#372 = VECTOR('',#373,1.);
#373 = DIRECTION('',(-1.,-0.,-0.));
#374 = ORIENTED_EDGE('',*,*,#94,.F.);
#375 = PLANE('',#376);
#376 = AXIS2_PLACEMENT_3D('',#377,#378,#379);
#377 = CARTESIAN_POINT('',(-0.75,0.64,-1.27));
#378 = DIRECTION('',(0.,-1.,0.));
#379 = DIRECTION('',(-1.,0.,0.));
#380 = ADVANCED_FACE('',(#381),#398,.T.);
#381 = FACE_BOUND('',#382,.T.);
#382 = EDGE_LOOP('',(#383,#391,#392));
#383 = ORIENTED_EDGE('',*,*,#384,.T.);
#384 = EDGE_CURVE('',#385,#129,#387,.T.);
#385 = VERTEX_POINT('',#386);
#386 = CARTESIAN_POINT('',(-1.02,0.64,-0.77));
#387 = LINE('',#388,#389);
#388 = CARTESIAN_POINT('',(-1.02,0.64,-0.77));
#389 = VECTOR('',#390,1.);
#390 = DIRECTION('',(-0.707106781187,0.707106781187,0.));
#391 = ORIENTED_EDGE('',*,*,#136,.T.);
#392 = ORIENTED_EDGE('',*,*,#393,.T.);
#393 = EDGE_CURVE('',#137,#385,#394,.T.);
#394 = LINE('',#395,#396);
#395 = CARTESIAN_POINT('',(-1.093223304703,0.64,-0.946776695297));
#396 = VECTOR('',#397,1.);
#397 = DIRECTION('',(0.382683432365,0.,0.923879532511));
#398 = B_SPLINE_SURFACE_WITH_KNOTS('',8,8,(
    (#399,#400,#401,#402,#403,#404,#405,#406,#407)
    ,(#408,#409,#410,#411,#412,#413,#414,#415,#416)
    ,(#417,#418,#419,#420,#421,#422,#423,#424,#425)
    ,(#426,#427,#428,#429,#430,#431,#432,#433,#434)
    ,(#435,#436,#437,#438,#439,#440,#441,#442,#443)
    ,(#444,#445,#446,#447,#448,#449,#450,#451,#452)
    ,(#453,#454,#455,#456,#457,#458,#459,#460,#461)
    ,(#462,#463,#464,#465,#466,#467,#468,#469,#470)
    ,(#471,#472,#473,#474,#475,#476,#477,#478,#479
  )),.UNSPECIFIED.,.F.,.F.,.F.,(9,9),(9,9),(-0.245750911579,
    0.132502053703),(-8.530067295391E-02,9.431352701606E-02),
  .PIECEWISE_BEZIER_KNOTS.);
#399 = CARTESIAN_POINT('',(-1.371481891362,0.811958680999,
    -0.759610136844));
#400 = CARTESIAN_POINT('',(-1.348146172663,0.83938218571,-0.764632206685
    ));
#401 = CARTESIAN_POINT('',(-1.325560306304,0.865020263916,
    -0.767866000681));
#402 = CARTESIAN_POINT('',(-1.303382619489,0.889504689715,
    -0.769980654503));
#403 = CARTESIAN_POINT('',(-1.282871146315,0.910631755774,
    -0.768672159402));
#404 = CARTESIAN_POINT('',(-1.259966067024,0.936592270545,
    -0.772239742278));
#405 = CARTESIAN_POINT('',(-1.237960087946,0.960954865081,
    -0.774190834017));
#406 = CARTESIAN_POINT('',(-1.215359267012,0.986530013966,
    -0.777354232256));
#407 = CARTESIAN_POINT('',(-1.192820040282,1.011982105284,
    -0.780394494081));
#408 = CARTESIAN_POINT('',(-1.34155578295,0.776634853262,-0.77170203362)
  );
#409 = CARTESIAN_POINT('',(-1.319546450006,0.800861234477,
    -0.773528068561));
#410 = CARTESIAN_POINT('',(-1.298366879314,0.823140481479,
    -0.773398960218));
#411 = CARTESIAN_POINT('',(-1.277351728317,0.84460947198,-0.772520043304
    ));
#412 = CARTESIAN_POINT('',(-1.258964621513,0.860946261753,
    -0.766419875125));
#413 = CARTESIAN_POINT('',(-1.237335865432,0.883710649522,
    -0.766780735311));
#414 = CARTESIAN_POINT('',(-1.216859920692,0.90441850321,-0.765093538316
    ));
#415 = CARTESIAN_POINT('',(-1.195741518935,0.926431662632,
    -0.764695149251));
#416 = CARTESIAN_POINT('',(-1.174729246354,0.948214214051,
    -0.764069944745));
#417 = CARTESIAN_POINT('',(-1.310289742139,0.74456349687,-0.787049279486
    ));
#418 = CARTESIAN_POINT('',(-1.289694957502,0.765392278886,
    -0.785470124107));
#419 = CARTESIAN_POINT('',(-1.269675773787,0.785038334825,
    -0.782742466754));
#420 = CARTESIAN_POINT('',(-1.248556610763,0.806045887302,
    -0.781351375443));
#421 = CARTESIAN_POINT('',(-1.232973188357,0.815787335702,
    -0.768808688973));
#422 = CARTESIAN_POINT('',(-1.213452823814,0.834571553757,
    -0.764954547702));
#423 = CARTESIAN_POINT('',(-1.193613832052,0.852782446135,
    -0.760924883203));
#424 = CARTESIAN_POINT('',(-1.1740857323,0.871231215233,-0.756928059957)
  );
#425 = CARTESIAN_POINT('',(-1.154638878979,0.889251671051,
    -0.752545326324));
#426 = CARTESIAN_POINT('',(-1.276160614904,0.719342614977,
    -0.809224148158));
#427 = CARTESIAN_POINT('',(-1.256211810632,0.738602093128,
    -0.806116393043));
#428 = CARTESIAN_POINT('',(-1.238508161116,0.752197136411,
    -0.797149346711));
#429 = CARTESIAN_POINT('',(-1.224123327181,0.759821757592,
    -0.782292956442));
#430 = CARTESIAN_POINT('',(-1.201334304468,0.783392118143,
    -0.783840508358));
#431 = CARTESIAN_POINT('',(-1.188536050576,0.786422493531,
    -0.764423323406));
#432 = CARTESIAN_POINT('',(-1.168144665994,0.807122451182,-0.7626135478)
  );
#433 = CARTESIAN_POINT('',(-1.150938809413,0.819592906952,
    -0.752725393949));
#434 = CARTESIAN_POINT('',(-1.132801791355,0.834475942896,
    -0.745205659889));
#435 = CARTESIAN_POINT('',(-1.245247817351,0.686630518427,
    -0.823950965917));
#436 = CARTESIAN_POINT('',(-1.22800401323,0.699532409138,-0.814371852673
    ));
#437 = CARTESIAN_POINT('',(-1.209313077129,0.716025982786,
    -0.808842294291));
#438 = CARTESIAN_POINT('',(-1.186549033349,0.740429533179,-0.81070629732
    ));
#439 = CARTESIAN_POINT('',(-1.18058342277,0.72820916982,-0.775772327886)
  );
#440 = CARTESIAN_POINT('',(-1.155424890344,0.758884677981,
    -0.784233297867));
#441 = CARTESIAN_POINT('',(-1.143685109085,0.758318693219,
    -0.761292944352));
#442 = CARTESIAN_POINT('',(-1.124999999793,0.774662317231,
    -0.755210070325));
#443 = CARTESIAN_POINT('',(-1.108893832213,0.78466954408,-0.742826177771
    ));
#444 = CARTESIAN_POINT('',(-1.205994215417,0.673336434863,-0.85818642837
    ));
#445 = CARTESIAN_POINT('',(-1.188823961254,0.685856720552,-0.84847620208
    ));
#446 = CARTESIAN_POINT('',(-1.172773106355,0.695753945228,
    -0.835512306485));
#447 = CARTESIAN_POINT('',(-1.165769402589,0.684798536733,
    -0.802283522847));
#448 = CARTESIAN_POINT('',(-1.140981386471,0.714460486794,
    -0.809824482476));
#449 = CARTESIAN_POINT('',(-1.133323491145,0.704898276688,
    -0.777610180424));
#450 = CARTESIAN_POINT('',(-1.112832629976,0.725408999842,
    -0.775788301525));
#451 = CARTESIAN_POINT('',(-1.09967313331,0.728288685615,-0.756278253344
    ));
#452 = CARTESIAN_POINT('',(-1.084326127098,0.736467473564,
    -0.742060219528));
#453 = CARTESIAN_POINT('',(-1.172731545208,0.646278935757,
    -0.878248206339));
#454 = CARTESIAN_POINT('',(-1.157680420266,0.653781863451,
    -0.863298111363));
#455 = CARTESIAN_POINT('',(-1.144847040522,0.655930657874,
    -0.843457714424));
#456 = CARTESIAN_POINT('',(-1.126419856276,0.671460473805,-0.8364371359)
  );
#457 = CARTESIAN_POINT('',(-1.115724979979,0.668647370863,
    -0.811157708614));
#458 = CARTESIAN_POINT('',(-1.098783684745,0.680541636059,-0.80078161601
    ));
#459 = CARTESIAN_POINT('',(-1.086005908091,0.682562562073,
    -0.780355102599));
#460 = CARTESIAN_POINT('',(-1.070799419844,0.690430774304,
    -0.765831935957));
#461 = CARTESIAN_POINT('',(-1.0574199258,0.693881031759,-0.746896072499)
  );
#462 = CARTESIAN_POINT('',(-1.132090025184,0.636769851973,
    -0.916290587258));
#463 = CARTESIAN_POINT('',(-1.119256062816,0.638919557789,
    -0.896079222359));
#464 = CARTESIAN_POINT('',(-1.104241863221,0.646299323123,
    -0.881008040684));
#465 = CARTESIAN_POINT('',(-1.093237995856,0.644070313666,
    -0.856504380959));
#466 = CARTESIAN_POINT('',(-1.078667283935,0.650364639088,
    -0.840308581262));
#467 = CARTESIAN_POINT('',(-1.06656327516,0.65077708749,-0.818390907434)
  );
#468 = CARTESIAN_POINT('',(-1.054139545843,0.651916833883,
    -0.797127502244));
#469 = CARTESIAN_POINT('',(-1.041632499875,0.653280241409,-0.77610652288
    ));
#470 = CARTESIAN_POINT('',(-1.029657361121,0.65335321378,-0.753796400318
    ));
#471 = CARTESIAN_POINT('',(-1.085803509853,0.640852259895,
    -0.967744227552));
#472 = CARTESIAN_POINT('',(-1.074507151798,0.639296172802,
    -0.943816382108));
#473 = CARTESIAN_POINT('',(-1.062676391506,0.639018376105,
    -0.921136252359));
#474 = CARTESIAN_POINT('',(-1.052666482183,0.634375606419,
    -0.894132665195));
#475 = CARTESIAN_POINT('',(-1.040647288068,0.634533231343,
    -0.871891529161));
#476 = CARTESIAN_POINT('',(-1.030258298913,0.630809253337,
    -0.845795214454));
#477 = CARTESIAN_POINT('',(-1.019789579689,0.62724620279,-0.819855560136
    ));
#478 = CARTESIAN_POINT('',(-1.009254385859,0.62386114853,-0.794092057615
    ));
#479 = CARTESIAN_POINT('',(-0.998984955873,0.619829589848,
    -0.767683403307));
#480 = ADVANCED_FACE('',(#481),#517,.T.);
#481 = FACE_BOUND('',#482,.F.);
#482 = EDGE_LOOP('',(#483,#498,#499,#500,#501,#509));
#483 = ORIENTED_EDGE('',*,*,#484,.F.);
#484 = EDGE_CURVE('',#338,#485,#487,.T.);
#485 = VERTEX_POINT('',#486);
#486 = CARTESIAN_POINT('',(-1.093223304703,0.64,0.946776695297));
#487 = B_SPLINE_CURVE_WITH_KNOTS('',9,(#488,#489,#490,#491,#492,#493,
    #494,#495,#496,#497),.UNSPECIFIED.,.F.,.F.,(10,10),(0.,1.),
  .PIECEWISE_BEZIER_KNOTS.);
#488 = CARTESIAN_POINT('',(-1.27,0.89,0.77));
#489 = CARTESIAN_POINT('',(-1.27,0.846146013747,0.77));
#490 = CARTESIAN_POINT('',(-1.264583736288,0.802291548558,0.775416263712
    ));
#491 = CARTESIAN_POINT('',(-1.253207351833,0.759968980314,0.786792648167
    ));
#492 = CARTESIAN_POINT('',(-1.235723988261,0.721230228965,0.804276011739
    ));
#493 = CARTESIAN_POINT('',(-1.212561554261,0.688473600665,0.827438445739
    ));
#494 = CARTESIAN_POINT('',(-1.185169120488,0.663748390786,0.854830879512
    ));
#495 = CARTESIAN_POINT('',(-1.155242545486,0.647659753599,0.884757454514
    ));
#496 = CARTESIAN_POINT('',(-1.124232755765,0.64,0.915767244235));
#497 = CARTESIAN_POINT('',(-1.093223304703,0.64,0.946776695297));
#498 = ORIENTED_EDGE('',*,*,#345,.T.);
#499 = ORIENTED_EDGE('',*,*,#258,.F.);
#500 = ORIENTED_EDGE('',*,*,#168,.T.);
#501 = ORIENTED_EDGE('',*,*,#502,.F.);
#502 = EDGE_CURVE('',#503,#169,#505,.T.);
#503 = VERTEX_POINT('',#504);
#504 = CARTESIAN_POINT('',(-0.77,0.64,1.27));
#505 = LINE('',#506,#507);
#506 = CARTESIAN_POINT('',(-0.77,0.64,1.27));
#507 = VECTOR('',#508,1.);
#508 = DIRECTION('',(0.,1.,0.));
#509 = ORIENTED_EDGE('',*,*,#510,.F.);
#510 = EDGE_CURVE('',#511,#503,#513,.T.);
#511 = VERTEX_POINT('',#512);
#512 = CARTESIAN_POINT('',(-1.24,0.64,0.8));
#513 = LINE('',#514,#515);
#514 = CARTESIAN_POINT('',(-1.525,0.64,0.515));
#515 = VECTOR('',#516,1.);
#516 = DIRECTION('',(0.707106781187,0.,0.707106781187));
#517 = PLANE('',#518);
#518 = AXIS2_PLACEMENT_3D('',#519,#520,#521);
#519 = CARTESIAN_POINT('',(-1.02,0.64,1.02));
#520 = DIRECTION('',(-0.707106781187,0.,0.707106781187));
#521 = DIRECTION('',(-0.,-1.,-0.));
#522 = ADVANCED_FACE('',(#523),#557,.F.);
#523 = FACE_BOUND('',#524,.F.);
#524 = EDGE_LOOP('',(#525,#526,#527,#535,#543,#551));
#525 = ORIENTED_EDGE('',*,*,#200,.F.);
#526 = ORIENTED_EDGE('',*,*,#320,.T.);
#527 = ORIENTED_EDGE('',*,*,#528,.T.);
#528 = EDGE_CURVE('',#313,#529,#531,.T.);
#529 = VERTEX_POINT('',#530);
#530 = CARTESIAN_POINT('',(1.02,0.64,-1.02));
#531 = LINE('',#532,#533);
#532 = CARTESIAN_POINT('',(1.02,0.64,-1.02));
#533 = VECTOR('',#534,1.);
#534 = DIRECTION('',(0.707106781187,0.,0.707106781187));
#535 = ORIENTED_EDGE('',*,*,#536,.T.);
#536 = EDGE_CURVE('',#529,#537,#539,.T.);
#537 = VERTEX_POINT('',#538);
#538 = CARTESIAN_POINT('',(1.27,0.89,-0.77));
#539 = LINE('',#540,#541);
#540 = CARTESIAN_POINT('',(1.436666666667,1.056666666667,-0.603333333333
    ));
#541 = VECTOR('',#542,1.);
#542 = DIRECTION('',(0.57735026919,0.57735026919,0.57735026919));
#543 = ORIENTED_EDGE('',*,*,#544,.F.);
#544 = EDGE_CURVE('',#545,#537,#547,.T.);
#545 = VERTEX_POINT('',#546);
#546 = CARTESIAN_POINT('',(1.27,2.39,-0.77));
#547 = LINE('',#548,#549);
#548 = CARTESIAN_POINT('',(1.27,2.64,-0.77));
#549 = VECTOR('',#550,1.);
#550 = DIRECTION('',(0.,-1.,0.));
#551 = ORIENTED_EDGE('',*,*,#552,.F.);
#552 = EDGE_CURVE('',#193,#545,#553,.T.);
#553 = LINE('',#554,#555);
#554 = CARTESIAN_POINT('',(1.103333333333,2.556666666667,-0.936666666667
    ));
#555 = VECTOR('',#556,1.);
#556 = DIRECTION('',(0.57735026919,-0.57735026919,0.57735026919));
#557 = PLANE('',#558);
#558 = AXIS2_PLACEMENT_3D('',#559,#560,#561);
#559 = CARTESIAN_POINT('',(1.02,2.64,-1.02));
#560 = DIRECTION('',(-0.707106781187,0.,0.707106781187));
#561 = DIRECTION('',(0.,-1.,0.));
#562 = ADVANCED_FACE('',(#563),#613,.T.);
#563 = FACE_BOUND('',#564,.T.);
#564 = EDGE_LOOP('',(#565,#573,#581,#589,#597,#605,#611,#612));
#565 = ORIENTED_EDGE('',*,*,#566,.F.);
#566 = EDGE_CURVE('',#567,#503,#569,.T.);
#567 = VERTEX_POINT('',#568);
#568 = CARTESIAN_POINT('',(-0.75,0.64,1.27));
#569 = LINE('',#570,#571);
#570 = CARTESIAN_POINT('',(-0.75,0.64,1.27));
#571 = VECTOR('',#572,1.);
#572 = DIRECTION('',(-1.,0.,0.));
#573 = ORIENTED_EDGE('',*,*,#574,.F.);
#574 = EDGE_CURVE('',#575,#567,#577,.T.);
#575 = VERTEX_POINT('',#576);
#576 = CARTESIAN_POINT('',(-0.75,0.,1.27));
#577 = LINE('',#578,#579);
#578 = CARTESIAN_POINT('',(-0.75,0.,1.27));
#579 = VECTOR('',#580,1.);
#580 = DIRECTION('',(0.,1.,0.));
#581 = ORIENTED_EDGE('',*,*,#582,.F.);
#582 = EDGE_CURVE('',#583,#575,#585,.T.);
#583 = VERTEX_POINT('',#584);
#584 = CARTESIAN_POINT('',(0.75,0.,1.27));
#585 = LINE('',#586,#587);
#586 = CARTESIAN_POINT('',(0.75,0.,1.27));
#587 = VECTOR('',#588,1.);
#588 = DIRECTION('',(-1.,0.,0.));
#589 = ORIENTED_EDGE('',*,*,#590,.F.);
#590 = EDGE_CURVE('',#591,#583,#593,.T.);
#591 = VERTEX_POINT('',#592);
#592 = CARTESIAN_POINT('',(0.75,0.64,1.27));
#593 = LINE('',#594,#595);
#594 = CARTESIAN_POINT('',(0.75,0.64,1.27));
#595 = VECTOR('',#596,1.);
#596 = DIRECTION('',(0.,-1.,0.));
#597 = ORIENTED_EDGE('',*,*,#598,.F.);
#598 = EDGE_CURVE('',#599,#591,#601,.T.);
#599 = VERTEX_POINT('',#600);
#600 = CARTESIAN_POINT('',(0.77,0.64,1.27));
#601 = LINE('',#602,#603);
#602 = CARTESIAN_POINT('',(1.27,0.64,1.27));
#603 = VECTOR('',#604,1.);
#604 = DIRECTION('',(-1.,0.,0.));
#605 = ORIENTED_EDGE('',*,*,#606,.F.);
#606 = EDGE_CURVE('',#177,#599,#607,.T.);
#607 = LINE('',#608,#609);
#608 = CARTESIAN_POINT('',(0.77,2.64,1.27));
#609 = VECTOR('',#610,1.);
#610 = DIRECTION('',(0.,-1.,0.));
#611 = ORIENTED_EDGE('',*,*,#176,.F.);
#612 = ORIENTED_EDGE('',*,*,#502,.F.);
#613 = PLANE('',#614);
#614 = AXIS2_PLACEMENT_3D('',#615,#616,#617);
#615 = CARTESIAN_POINT('',(3.2E-16,1.384247104247,1.27));
#616 = DIRECTION('',(0.,0.,1.));
#617 = DIRECTION('',(1.,0.,0.));
#618 = ADVANCED_FACE('',(#619),#637,.T.);
#619 = FACE_BOUND('',#620,.T.);
#620 = EDGE_LOOP('',(#621,#622,#623,#631));
#621 = ORIENTED_EDGE('',*,*,#552,.F.);
#622 = ORIENTED_EDGE('',*,*,#192,.T.);
#623 = ORIENTED_EDGE('',*,*,#624,.T.);
#624 = EDGE_CURVE('',#185,#625,#627,.T.);
#625 = VERTEX_POINT('',#626);
#626 = CARTESIAN_POINT('',(1.27,2.39,0.77));
#627 = LINE('',#628,#629);
#628 = CARTESIAN_POINT('',(1.36,2.3,0.68));
#629 = VECTOR('',#630,1.);
#630 = DIRECTION('',(0.57735026919,-0.57735026919,-0.57735026919));
#631 = ORIENTED_EDGE('',*,*,#632,.F.);
#632 = EDGE_CURVE('',#545,#625,#633,.T.);
#633 = LINE('',#634,#635);
#634 = CARTESIAN_POINT('',(1.27,2.39,-0.77));
#635 = VECTOR('',#636,1.);
#636 = DIRECTION('',(0.,0.,1.));
#637 = PLANE('',#638);
#638 = AXIS2_PLACEMENT_3D('',#639,#640,#641);
#639 = CARTESIAN_POINT('',(1.145,2.515,-0.77));
#640 = DIRECTION('',(0.707106781187,0.707106781187,0.));
#641 = DIRECTION('',(0.,0.,1.));
#642 = ADVANCED_FACE('',(#643),#670,.T.);
#643 = FACE_BOUND('',#644,.F.);
#644 = EDGE_LOOP('',(#645,#646,#647,#655,#663,#669));
#645 = ORIENTED_EDGE('',*,*,#184,.F.);
#646 = ORIENTED_EDGE('',*,*,#624,.T.);
#647 = ORIENTED_EDGE('',*,*,#648,.T.);
#648 = EDGE_CURVE('',#625,#649,#651,.T.);
#649 = VERTEX_POINT('',#650);
#650 = CARTESIAN_POINT('',(1.27,0.89,0.77));
#651 = LINE('',#652,#653);
#652 = CARTESIAN_POINT('',(1.27,2.64,0.77));
#653 = VECTOR('',#654,1.);
#654 = DIRECTION('',(0.,-1.,0.));
#655 = ORIENTED_EDGE('',*,*,#656,.F.);
#656 = EDGE_CURVE('',#657,#649,#659,.T.);
#657 = VERTEX_POINT('',#658);
#658 = CARTESIAN_POINT('',(1.02,0.64,1.02));
#659 = LINE('',#660,#661);
#660 = CARTESIAN_POINT('',(1.693333333333,1.313333333333,0.346666666667)
  );
#661 = VECTOR('',#662,1.);
#662 = DIRECTION('',(0.57735026919,0.57735026919,-0.57735026919));
#663 = ORIENTED_EDGE('',*,*,#664,.T.);
#664 = EDGE_CURVE('',#657,#599,#665,.T.);
#665 = LINE('',#666,#667);
#666 = CARTESIAN_POINT('',(1.655,0.64,0.385));
#667 = VECTOR('',#668,1.);
#668 = DIRECTION('',(-0.707106781187,0.,0.707106781187));
#669 = ORIENTED_EDGE('',*,*,#606,.F.);
#670 = PLANE('',#671);
#671 = AXIS2_PLACEMENT_3D('',#672,#673,#674);
#672 = CARTESIAN_POINT('',(1.02,2.64,1.02));
#673 = DIRECTION('',(0.707106781187,0.,0.707106781187));
#674 = DIRECTION('',(0.,1.,0.));
#675 = ADVANCED_FACE('',(#676),#701,.F.);
#676 = FACE_BOUND('',#677,.F.);
#677 = EDGE_LOOP('',(#678,#679,#687,#695));
#678 = ORIENTED_EDGE('',*,*,#216,.F.);
#679 = ORIENTED_EDGE('',*,*,#680,.T.);
#680 = EDGE_CURVE('',#217,#681,#683,.T.);
#681 = VERTEX_POINT('',#682);
#682 = CARTESIAN_POINT('',(-0.32,0.64,-0.32));
#683 = LINE('',#684,#685);
#684 = CARTESIAN_POINT('',(-0.32,2.64,-0.32));
#685 = VECTOR('',#686,1.);
#686 = DIRECTION('',(0.,-1.,2.2E-16));
#687 = ORIENTED_EDGE('',*,*,#688,.T.);
#688 = EDGE_CURVE('',#681,#689,#691,.T.);
#689 = VERTEX_POINT('',#690);
#690 = CARTESIAN_POINT('',(-0.32,0.64,0.32));
#691 = LINE('',#692,#693);
#692 = CARTESIAN_POINT('',(-0.32,0.64,-0.56));
#693 = VECTOR('',#694,1.);
#694 = DIRECTION('',(0.,0.,1.));
#695 = ORIENTED_EDGE('',*,*,#696,.F.);
#696 = EDGE_CURVE('',#219,#689,#697,.T.);
#697 = LINE('',#698,#699);
#698 = CARTESIAN_POINT('',(-0.32,2.64,0.32));
#699 = VECTOR('',#700,1.);
#700 = DIRECTION('',(0.,-1.,2.2E-16));
#701 = PLANE('',#702);
#702 = AXIS2_PLACEMENT_3D('',#703,#704,#705);
#703 = CARTESIAN_POINT('',(-0.32,2.64,-0.32));
#704 = DIRECTION('',(-1.,0.,0.));
#705 = DIRECTION('',(0.,2.2E-16,1.));
#706 = ADVANCED_FACE('',(#707),#725,.F.);
#707 = FACE_BOUND('',#708,.F.);
#708 = EDGE_LOOP('',(#709,#710,#711,#719));
#709 = ORIENTED_EDGE('',*,*,#242,.F.);
#710 = ORIENTED_EDGE('',*,*,#696,.T.);
#711 = ORIENTED_EDGE('',*,*,#712,.T.);
#712 = EDGE_CURVE('',#689,#713,#715,.T.);
#713 = VERTEX_POINT('',#714);
#714 = CARTESIAN_POINT('',(0.32,0.64,0.32));
#715 = LINE('',#716,#717);
#716 = CARTESIAN_POINT('',(0.215,0.64,0.32));
#717 = VECTOR('',#718,1.);
#718 = DIRECTION('',(1.,0.,0.));
#719 = ORIENTED_EDGE('',*,*,#720,.F.);
#720 = EDGE_CURVE('',#235,#713,#721,.T.);
#721 = LINE('',#722,#723);
#722 = CARTESIAN_POINT('',(0.32,2.64,0.32));
#723 = VECTOR('',#724,1.);
#724 = DIRECTION('',(0.,-1.,2.2E-16));
#725 = PLANE('',#726);
#726 = AXIS2_PLACEMENT_3D('',#727,#728,#729);
#727 = CARTESIAN_POINT('',(-0.32,2.64,0.32));
#728 = DIRECTION('',(0.,2.2E-16,1.));
#729 = DIRECTION('',(1.,0.,0.));
#730 = ADVANCED_FACE('',(#731),#749,.F.);
#731 = FACE_BOUND('',#732,.F.);
#732 = EDGE_LOOP('',(#733,#734,#735,#743));
#733 = ORIENTED_EDGE('',*,*,#234,.F.);
#734 = ORIENTED_EDGE('',*,*,#720,.T.);
#735 = ORIENTED_EDGE('',*,*,#736,.T.);
#736 = EDGE_CURVE('',#713,#737,#739,.T.);
#737 = VERTEX_POINT('',#738);
#738 = CARTESIAN_POINT('',(0.32,0.64,-0.32));
#739 = LINE('',#740,#741);
#740 = CARTESIAN_POINT('',(0.32,0.64,-0.24));
#741 = VECTOR('',#742,1.);
#742 = DIRECTION('',(0.,0.,-1.));
#743 = ORIENTED_EDGE('',*,*,#744,.F.);
#744 = EDGE_CURVE('',#227,#737,#745,.T.);
#745 = LINE('',#746,#747);
#746 = CARTESIAN_POINT('',(0.32,2.64,-0.32));
#747 = VECTOR('',#748,1.);
#748 = DIRECTION('',(0.,-1.,2.2E-16));
#749 = PLANE('',#750);
#750 = AXIS2_PLACEMENT_3D('',#751,#752,#753);
#751 = CARTESIAN_POINT('',(0.32,2.64,0.32));
#752 = DIRECTION('',(1.,0.,0.));
#753 = DIRECTION('',(0.,-2.2E-16,-1.));
#754 = ADVANCED_FACE('',(#755),#766,.F.);
#755 = FACE_BOUND('',#756,.F.);
#756 = EDGE_LOOP('',(#757,#758,#759,#765));
#757 = ORIENTED_EDGE('',*,*,#226,.F.);
#758 = ORIENTED_EDGE('',*,*,#744,.T.);
#759 = ORIENTED_EDGE('',*,*,#760,.T.);
#760 = EDGE_CURVE('',#737,#681,#761,.T.);
#761 = LINE('',#762,#763);
#762 = CARTESIAN_POINT('',(0.535,0.64,-0.32));
#763 = VECTOR('',#764,1.);
#764 = DIRECTION('',(-1.,0.,0.));
#765 = ORIENTED_EDGE('',*,*,#680,.F.);
#766 = PLANE('',#767);
#767 = AXIS2_PLACEMENT_3D('',#768,#769,#770);
#768 = CARTESIAN_POINT('',(0.32,2.64,-0.32));
#769 = DIRECTION('',(-0.,-2.2E-16,-1.));
#770 = DIRECTION('',(-1.,0.,0.));
#771 = ADVANCED_FACE('',(#772),#790,.T.);
#772 = FACE_BOUND('',#773,.T.);
#773 = EDGE_LOOP('',(#774,#775,#783,#789));
#774 = ORIENTED_EDGE('',*,*,#288,.F.);
#775 = ORIENTED_EDGE('',*,*,#776,.T.);
#776 = EDGE_CURVE('',#289,#777,#779,.T.);
#777 = VERTEX_POINT('',#778);
#778 = CARTESIAN_POINT('',(-0.75,0.,-0.8));
#779 = LINE('',#780,#781);
#780 = CARTESIAN_POINT('',(-0.75,0.,-1.27));
#781 = VECTOR('',#782,1.);
#782 = DIRECTION('',(0.,0.,1.));
#783 = ORIENTED_EDGE('',*,*,#784,.F.);
#784 = EDGE_CURVE('',#362,#777,#785,.T.);
#785 = LINE('',#786,#787);
#786 = CARTESIAN_POINT('',(-0.75,-0.32,-0.8));
#787 = VECTOR('',#788,1.);
#788 = DIRECTION('',(-0.,-1.,-0.));
#789 = ORIENTED_EDGE('',*,*,#361,.F.);
#790 = PLANE('',#791);
#791 = AXIS2_PLACEMENT_3D('',#792,#793,#794);
#792 = CARTESIAN_POINT('',(-0.75,0.,-1.27));
#793 = DIRECTION('',(-1.,0.,0.));
#794 = DIRECTION('',(0.,1.,0.));
#795 = ADVANCED_FACE('',(#796),#814,.T.);
#796 = FACE_BOUND('',#797,.T.);
#797 = EDGE_LOOP('',(#798,#799,#807,#813));
#798 = ORIENTED_EDGE('',*,*,#296,.F.);
#799 = ORIENTED_EDGE('',*,*,#800,.T.);
#800 = EDGE_CURVE('',#297,#801,#803,.T.);
#801 = VERTEX_POINT('',#802);
#802 = CARTESIAN_POINT('',(0.75,0.,-0.8));
#803 = LINE('',#804,#805);
#804 = CARTESIAN_POINT('',(0.75,0.,-1.27));
#805 = VECTOR('',#806,1.);
#806 = DIRECTION('',(0.,0.,1.));
#807 = ORIENTED_EDGE('',*,*,#808,.F.);
#808 = EDGE_CURVE('',#777,#801,#809,.T.);
#809 = LINE('',#810,#811);
#810 = CARTESIAN_POINT('',(0.75,0.,-0.8));
#811 = VECTOR('',#812,1.);
#812 = DIRECTION('',(1.,0.,0.));
#813 = ORIENTED_EDGE('',*,*,#776,.F.);
#814 = PLANE('',#815);
#815 = AXIS2_PLACEMENT_3D('',#816,#817,#818);
#816 = CARTESIAN_POINT('',(0.75,0.,-1.27));
#817 = DIRECTION('',(0.,-1.,0.));
#818 = DIRECTION('',(-1.,0.,0.));
#819 = ADVANCED_FACE('',(#820),#838,.T.);
#820 = FACE_BOUND('',#821,.T.);
#821 = EDGE_LOOP('',(#822,#823,#831,#837));
#822 = ORIENTED_EDGE('',*,*,#304,.F.);
#823 = ORIENTED_EDGE('',*,*,#824,.T.);
#824 = EDGE_CURVE('',#305,#825,#827,.T.);
#825 = VERTEX_POINT('',#826);
#826 = CARTESIAN_POINT('',(0.75,0.64,-0.8));
#827 = LINE('',#828,#829);
#828 = CARTESIAN_POINT('',(0.75,0.64,-1.27));
#829 = VECTOR('',#830,1.);
#830 = DIRECTION('',(0.,0.,1.));
#831 = ORIENTED_EDGE('',*,*,#832,.F.);
#832 = EDGE_CURVE('',#801,#825,#833,.T.);
#833 = LINE('',#834,#835);
#834 = CARTESIAN_POINT('',(0.75,-0.64,-0.8));
#835 = VECTOR('',#836,1.);
#836 = DIRECTION('',(0.,1.,0.));
#837 = ORIENTED_EDGE('',*,*,#800,.F.);
#838 = PLANE('',#839);
#839 = AXIS2_PLACEMENT_3D('',#840,#841,#842);
#840 = CARTESIAN_POINT('',(0.75,0.64,-1.27));
#841 = DIRECTION('',(1.,0.,0.));
#842 = DIRECTION('',(0.,-1.,0.));
#843 = ADVANCED_FACE('',(#844),#871,.T.);
#844 = FACE_BOUND('',#845,.T.);
#845 = EDGE_LOOP('',(#846,#847,#853,#854,#855,#863,#869,#870));
#846 = ORIENTED_EDGE('',*,*,#528,.T.);
#847 = ORIENTED_EDGE('',*,*,#848,.T.);
#848 = EDGE_CURVE('',#529,#657,#849,.T.);
#849 = LINE('',#850,#851);
#850 = CARTESIAN_POINT('',(1.02,0.64,-0.77));
#851 = VECTOR('',#852,1.);
#852 = DIRECTION('',(0.,0.,1.));
#853 = ORIENTED_EDGE('',*,*,#664,.T.);
#854 = ORIENTED_EDGE('',*,*,#598,.T.);
#855 = ORIENTED_EDGE('',*,*,#856,.F.);
#856 = EDGE_CURVE('',#857,#591,#859,.T.);
#857 = VERTEX_POINT('',#858);
#858 = CARTESIAN_POINT('',(0.75,0.64,0.8));
#859 = LINE('',#860,#861);
#860 = CARTESIAN_POINT('',(0.75,0.64,-1.27));
#861 = VECTOR('',#862,1.);
#862 = DIRECTION('',(0.,0.,1.));
#863 = ORIENTED_EDGE('',*,*,#864,.F.);
#864 = EDGE_CURVE('',#825,#857,#865,.T.);
#865 = LINE('',#866,#867);
#866 = CARTESIAN_POINT('',(0.75,0.64,-1.27));
#867 = VECTOR('',#868,1.);
#868 = DIRECTION('',(0.,0.,1.));
#869 = ORIENTED_EDGE('',*,*,#824,.F.);
#870 = ORIENTED_EDGE('',*,*,#312,.F.);
#871 = PLANE('',#872);
#872 = AXIS2_PLACEMENT_3D('',#873,#874,#875);
#873 = CARTESIAN_POINT('',(1.27,0.64,-1.27));
#874 = DIRECTION('',(0.,-1.,0.));
#875 = DIRECTION('',(-1.,0.,0.));
#876 = ADVANCED_FACE('',(#877),#895,.T.);
#877 = FACE_BOUND('',#878,.T.);
#878 = EDGE_LOOP('',(#879,#880,#888,#894));
#879 = ORIENTED_EDGE('',*,*,#384,.F.);
#880 = ORIENTED_EDGE('',*,*,#881,.T.);
#881 = EDGE_CURVE('',#385,#882,#884,.T.);
#882 = VERTEX_POINT('',#883);
#883 = CARTESIAN_POINT('',(-1.02,0.64,0.77));
#884 = LINE('',#885,#886);
#885 = CARTESIAN_POINT('',(-1.02,0.64,-0.77));
#886 = VECTOR('',#887,1.);
#887 = DIRECTION('',(0.,0.,1.));
#888 = ORIENTED_EDGE('',*,*,#889,.T.);
#889 = EDGE_CURVE('',#882,#338,#890,.T.);
#890 = LINE('',#891,#892);
#891 = CARTESIAN_POINT('',(-1.02,0.64,0.77));
#892 = VECTOR('',#893,1.);
#893 = DIRECTION('',(-0.707106781187,0.707106781187,0.));
#894 = ORIENTED_EDGE('',*,*,#337,.F.);
#895 = PLANE('',#896);
#896 = AXIS2_PLACEMENT_3D('',#897,#898,#899);
#897 = CARTESIAN_POINT('',(-1.145,0.765,-0.77));
#898 = DIRECTION('',(-0.707106781187,-0.707106781187,0.));
#899 = DIRECTION('',(0.,0.,1.));
#900 = ADVANCED_FACE('',(#901),#911,.T.);
#901 = FACE_BOUND('',#902,.T.);
#902 = EDGE_LOOP('',(#903,#909,#910));
#903 = ORIENTED_EDGE('',*,*,#904,.T.);
#904 = EDGE_CURVE('',#485,#882,#905,.T.);
#905 = LINE('',#906,#907);
#906 = CARTESIAN_POINT('',(-1.093223304703,0.64,0.946776695297));
#907 = VECTOR('',#908,1.);
#908 = DIRECTION('',(0.382683432365,0.,-0.923879532511));
#909 = ORIENTED_EDGE('',*,*,#881,.F.);
#910 = ORIENTED_EDGE('',*,*,#393,.F.);
#911 = PLANE('',#912);
#912 = AXIS2_PLACEMENT_3D('',#913,#914,#915);
#913 = CARTESIAN_POINT('',(-0.75,0.64,-1.27));
#914 = DIRECTION('',(0.,-1.,0.));
#915 = DIRECTION('',(-1.,0.,0.));
#916 = ADVANCED_FACE('',(#917),#922,.F.);
#917 = FACE_BOUND('',#918,.F.);
#918 = EDGE_LOOP('',(#919,#920,#921));
#919 = ORIENTED_EDGE('',*,*,#889,.T.);
#920 = ORIENTED_EDGE('',*,*,#484,.T.);
#921 = ORIENTED_EDGE('',*,*,#904,.T.);
#922 = B_SPLINE_SURFACE_WITH_KNOTS('',8,8,(
    (#923,#924,#925,#926,#927,#928,#929,#930,#931)
    ,(#932,#933,#934,#935,#936,#937,#938,#939,#940)
    ,(#941,#942,#943,#944,#945,#946,#947,#948,#949)
    ,(#950,#951,#952,#953,#954,#955,#956,#957,#958)
    ,(#959,#960,#961,#962,#963,#964,#965,#966,#967)
    ,(#968,#969,#970,#971,#972,#973,#974,#975,#976)
    ,(#977,#978,#979,#980,#981,#982,#983,#984,#985)
    ,(#986,#987,#988,#989,#990,#991,#992,#993,#994)
    ,(#995,#996,#997,#998,#999,#1000,#1001,#1002,#1003
  )),.UNSPECIFIED.,.F.,.F.,.F.,(9,9),(9,9),(-0.245750911579,
    0.132502053703),(-8.530067295391E-02,9.431352701606E-02),
  .PIECEWISE_BEZIER_KNOTS.);
#923 = CARTESIAN_POINT('',(-1.371481891362,0.811958680999,0.759610136844
    ));
#924 = CARTESIAN_POINT('',(-1.348146172663,0.839382185709,0.764632206684
    ));
#925 = CARTESIAN_POINT('',(-1.325560306304,0.865020263916,0.767866000681
    ));
#926 = CARTESIAN_POINT('',(-1.303382619489,0.889504689714,0.769980654502
    ));
#927 = CARTESIAN_POINT('',(-1.282871146315,0.910631755776,0.768672159403
    ));
#928 = CARTESIAN_POINT('',(-1.259966067025,0.936592270544,0.772239742278
    ));
#929 = CARTESIAN_POINT('',(-1.237960087946,0.960954865081,0.774190834017
    ));
#930 = CARTESIAN_POINT('',(-1.215359267013,0.986530013965,0.777354232256
    ));
#931 = CARTESIAN_POINT('',(-1.192820040283,1.011982105283,0.78039449408)
  );
#932 = CARTESIAN_POINT('',(-1.34155578295,0.776634853262,0.771702033619)
  );
#933 = CARTESIAN_POINT('',(-1.319546450006,0.800861234477,0.773528068561
    ));
#934 = CARTESIAN_POINT('',(-1.298366879313,0.823140481479,0.773398960217
    ));
#935 = CARTESIAN_POINT('',(-1.277351728318,0.84460947198,0.772520043304)
  );
#936 = CARTESIAN_POINT('',(-1.258964621511,0.860946261755,0.766419875125
    ));
#937 = CARTESIAN_POINT('',(-1.237335865434,0.883710649521,0.766780735312
    ));
#938 = CARTESIAN_POINT('',(-1.216859920691,0.90441850321,0.765093538315)
  );
#939 = CARTESIAN_POINT('',(-1.195741518936,0.926431662631,0.76469514925)
  );
#940 = CARTESIAN_POINT('',(-1.174729246354,0.94821421405,0.764069944745)
  );
#941 = CARTESIAN_POINT('',(-1.310289742139,0.74456349687,0.787049279486)
  );
#942 = CARTESIAN_POINT('',(-1.289694957502,0.765392278886,0.785470124106
    ));
#943 = CARTESIAN_POINT('',(-1.26967577379,0.785038334824,0.782742466754)
  );
#944 = CARTESIAN_POINT('',(-1.248556610756,0.806045887308,0.781351375446
    ));
#945 = CARTESIAN_POINT('',(-1.232973188366,0.815787335691,0.768808688968
    ));
#946 = CARTESIAN_POINT('',(-1.213452823807,0.834571553766,0.764954547705
    ));
#947 = CARTESIAN_POINT('',(-1.193613832055,0.852782446132,0.760924883204
    ));
#948 = CARTESIAN_POINT('',(-1.174085732299,0.871231215233,0.756928059957
    ));
#949 = CARTESIAN_POINT('',(-1.154638878979,0.889251671051,0.752545326323
    ));
#950 = CARTESIAN_POINT('',(-1.276160614905,0.719342614976,0.809224148158
    ));
#951 = CARTESIAN_POINT('',(-1.256211810634,0.738602093128,0.806116393043
    ));
#952 = CARTESIAN_POINT('',(-1.23850816111,0.752197136413,0.797149346712)
  );
#953 = CARTESIAN_POINT('',(-1.224123327195,0.759821757579,0.782292956435
    ));
#954 = CARTESIAN_POINT('',(-1.20133430445,0.783392118163,0.783840508369)
  );
#955 = CARTESIAN_POINT('',(-1.188536050592,0.786422493514,0.764423323399
    ));
#956 = CARTESIAN_POINT('',(-1.168144665986,0.807122451188,0.7626135478)
  );
#957 = CARTESIAN_POINT('',(-1.150938809415,0.819592906951,0.752725393949
    ));
#958 = CARTESIAN_POINT('',(-1.132801791355,0.834475942895,0.745205659888
    ));
#959 = CARTESIAN_POINT('',(-1.245247817351,0.686630518427,0.823950965917
    ));
#960 = CARTESIAN_POINT('',(-1.228004013228,0.699532409137,0.814371852672
    ));
#961 = CARTESIAN_POINT('',(-1.209313077137,0.716025982784,0.808842294292
    ));
#962 = CARTESIAN_POINT('',(-1.186549033332,0.740429533191,0.810706297327
    ));
#963 = CARTESIAN_POINT('',(-1.180583422793,0.728209169799,0.775772327875
    ));
#964 = CARTESIAN_POINT('',(-1.155424890324,0.758884677998,0.784233297874
    ));
#965 = CARTESIAN_POINT('',(-1.143685109094,0.758318693213,0.761292944353
    ));
#966 = CARTESIAN_POINT('',(-1.124999999791,0.774662317232,0.755210070324
    ));
#967 = CARTESIAN_POINT('',(-1.108893832213,0.784669544081,0.742826177771
    ));
#968 = CARTESIAN_POINT('',(-1.205994215416,0.673336434863,0.858186428371
    ));
#969 = CARTESIAN_POINT('',(-1.188823961256,0.685856720552,0.84847620208)
  );
#970 = CARTESIAN_POINT('',(-1.172773106349,0.695753945228,0.835512306483
    ));
#971 = CARTESIAN_POINT('',(-1.165769402602,0.684798536727,0.802283522845
    ));
#972 = CARTESIAN_POINT('',(-1.140981386453,0.714460486805,0.809824482479
    ));
#973 = CARTESIAN_POINT('',(-1.13332349116,0.704898276679,0.777610180423)
  );
#974 = CARTESIAN_POINT('',(-1.112832629968,0.725408999845,0.775788301523
    ));
#975 = CARTESIAN_POINT('',(-1.099673133313,0.728288685614,0.756278253345
    ));
#976 = CARTESIAN_POINT('',(-1.084326127098,0.736467473563,0.742060219528
    ));
#977 = CARTESIAN_POINT('',(-1.172731545208,0.646278935757,0.878248206339
    ));
#978 = CARTESIAN_POINT('',(-1.157680420265,0.653781863451,0.863298111362
    ));
#979 = CARTESIAN_POINT('',(-1.144847040525,0.655930657874,0.843457714425
    ));
#980 = CARTESIAN_POINT('',(-1.126419856269,0.671460473806,0.836437135899
    ));
#981 = CARTESIAN_POINT('',(-1.115724979988,0.66864737086,0.811157708616)
  );
#982 = CARTESIAN_POINT('',(-1.098783684737,0.680541636061,0.800781616008
    ));
#983 = CARTESIAN_POINT('',(-1.086005908096,0.682562562072,0.780355102601
    ));
#984 = CARTESIAN_POINT('',(-1.070799419842,0.690430774304,0.765831935957
    ));
#985 = CARTESIAN_POINT('',(-1.0574199258,0.69388103176,0.746896072499));
#986 = CARTESIAN_POINT('',(-1.132090025184,0.636769851973,0.916290587258
    ));
#987 = CARTESIAN_POINT('',(-1.119256062816,0.638919557789,0.896079222359
    ));
#988 = CARTESIAN_POINT('',(-1.10424186322,0.646299323123,0.881008040684)
  );
#989 = CARTESIAN_POINT('',(-1.093237995858,0.644070313666,0.85650438096)
  );
#990 = CARTESIAN_POINT('',(-1.078667283932,0.650364639088,0.840308581261
    ));
#991 = CARTESIAN_POINT('',(-1.066563275162,0.65077708749,0.818390907435)
  );
#992 = CARTESIAN_POINT('',(-1.054139545841,0.651916833883,0.797127502243
    ));
#993 = CARTESIAN_POINT('',(-1.041632499875,0.653280241409,0.77610652288)
  );
#994 = CARTESIAN_POINT('',(-1.029657361121,0.65335321378,0.753796400318)
  );
#995 = CARTESIAN_POINT('',(-1.085803509853,0.640852259895,0.967744227552
    ));
#996 = CARTESIAN_POINT('',(-1.074507151798,0.639296172802,0.943816382108
    ));
#997 = CARTESIAN_POINT('',(-1.062676391506,0.639018376105,0.921136252359
    ));
#998 = CARTESIAN_POINT('',(-1.052666482183,0.634375606419,0.894132665195
    ));
#999 = CARTESIAN_POINT('',(-1.040647288068,0.634533231342,0.871891529161
    ));
#1000 = CARTESIAN_POINT('',(-1.030258298913,0.630809253337,
    0.845795214455));
#1001 = CARTESIAN_POINT('',(-1.019789579689,0.62724620279,0.819855560136
    ));
#1002 = CARTESIAN_POINT('',(-1.009254385859,0.62386114853,0.794092057615
    ));
#1003 = CARTESIAN_POINT('',(-0.998984955873,0.619829589848,
    0.767683403307));
#1004 = ADVANCED_FACE('',(#1005),#1023,.T.);
#1005 = FACE_BOUND('',#1006,.T.);
#1006 = EDGE_LOOP('',(#1007,#1015,#1021,#1022));
#1007 = ORIENTED_EDGE('',*,*,#1008,.F.);
#1008 = EDGE_CURVE('',#1009,#511,#1011,.T.);
#1009 = VERTEX_POINT('',#1010);
#1010 = CARTESIAN_POINT('',(-0.75,0.64,0.8));
#1011 = LINE('',#1012,#1013);
#1012 = CARTESIAN_POINT('',(0.75,0.64,0.8));
#1013 = VECTOR('',#1014,1.);
#1014 = DIRECTION('',(-1.,-0.,-0.));
#1015 = ORIENTED_EDGE('',*,*,#1016,.T.);
#1016 = EDGE_CURVE('',#1009,#567,#1017,.T.);
#1017 = LINE('',#1018,#1019);
#1018 = CARTESIAN_POINT('',(-0.75,0.64,-1.27));
#1019 = VECTOR('',#1020,1.);
#1020 = DIRECTION('',(0.,0.,1.));
#1021 = ORIENTED_EDGE('',*,*,#566,.T.);
#1022 = ORIENTED_EDGE('',*,*,#510,.F.);
#1023 = PLANE('',#1024);
#1024 = AXIS2_PLACEMENT_3D('',#1025,#1026,#1027);
#1025 = CARTESIAN_POINT('',(-0.75,0.64,-1.27));
#1026 = DIRECTION('',(0.,-1.,0.));
#1027 = DIRECTION('',(-1.,0.,0.));
#1028 = ADVANCED_FACE('',(#1029),#1040,.T.);
#1029 = FACE_BOUND('',#1030,.T.);
#1030 = EDGE_LOOP('',(#1031,#1032,#1033,#1034));
#1031 = ORIENTED_EDGE('',*,*,#544,.F.);
#1032 = ORIENTED_EDGE('',*,*,#632,.T.);
#1033 = ORIENTED_EDGE('',*,*,#648,.T.);
#1034 = ORIENTED_EDGE('',*,*,#1035,.F.);
#1035 = EDGE_CURVE('',#537,#649,#1036,.T.);
#1036 = LINE('',#1037,#1038);
#1037 = CARTESIAN_POINT('',(1.27,0.89,-0.77));
#1038 = VECTOR('',#1039,1.);
#1039 = DIRECTION('',(0.,0.,1.));
#1040 = PLANE('',#1041);
#1041 = AXIS2_PLACEMENT_3D('',#1042,#1043,#1044);
#1042 = CARTESIAN_POINT('',(1.27,2.64,-1.27));
#1043 = DIRECTION('',(1.,0.,0.));
#1044 = DIRECTION('',(0.,-1.,0.));
#1045 = ADVANCED_FACE('',(#1046),#1052,.T.);
#1046 = FACE_BOUND('',#1047,.F.);
#1047 = EDGE_LOOP('',(#1048,#1049,#1050,#1051));
#1048 = ORIENTED_EDGE('',*,*,#536,.F.);
#1049 = ORIENTED_EDGE('',*,*,#848,.T.);
#1050 = ORIENTED_EDGE('',*,*,#656,.T.);
#1051 = ORIENTED_EDGE('',*,*,#1035,.F.);
#1052 = PLANE('',#1053);
#1053 = AXIS2_PLACEMENT_3D('',#1054,#1055,#1056);
#1054 = CARTESIAN_POINT('',(1.145,0.765,-0.77));
#1055 = DIRECTION('',(0.707106781187,-0.707106781187,0.));
#1056 = DIRECTION('',(-0.,-0.,-1.));
#1057 = ADVANCED_FACE('',(#1058),#1076,.T.);
#1058 = FACE_BOUND('',#1059,.T.);
#1059 = EDGE_LOOP('',(#1060,#1068,#1074,#1075));
#1060 = ORIENTED_EDGE('',*,*,#1061,.F.);
#1061 = EDGE_CURVE('',#1062,#1009,#1064,.T.);
#1062 = VERTEX_POINT('',#1063);
#1063 = CARTESIAN_POINT('',(-0.75,0.,0.8));
#1064 = LINE('',#1065,#1066);
#1065 = CARTESIAN_POINT('',(-0.75,0.32,0.8));
#1066 = VECTOR('',#1067,1.);
#1067 = DIRECTION('',(0.,1.,0.));
#1068 = ORIENTED_EDGE('',*,*,#1069,.T.);
#1069 = EDGE_CURVE('',#1062,#575,#1070,.T.);
#1070 = LINE('',#1071,#1072);
#1071 = CARTESIAN_POINT('',(-0.75,0.,-1.27));
#1072 = VECTOR('',#1073,1.);
#1073 = DIRECTION('',(0.,0.,1.));
#1074 = ORIENTED_EDGE('',*,*,#574,.T.);
#1075 = ORIENTED_EDGE('',*,*,#1016,.F.);
#1076 = PLANE('',#1077);
#1077 = AXIS2_PLACEMENT_3D('',#1078,#1079,#1080);
#1078 = CARTESIAN_POINT('',(-0.75,0.,-1.27));
#1079 = DIRECTION('',(-1.,0.,0.));
#1080 = DIRECTION('',(0.,1.,0.));
#1081 = ADVANCED_FACE('',(#1082),#1100,.T.);
#1082 = FACE_BOUND('',#1083,.T.);
#1083 = EDGE_LOOP('',(#1084,#1092,#1098,#1099));
#1084 = ORIENTED_EDGE('',*,*,#1085,.F.);
#1085 = EDGE_CURVE('',#1086,#1062,#1088,.T.);
#1086 = VERTEX_POINT('',#1087);
#1087 = CARTESIAN_POINT('',(0.75,0.,0.8));
#1088 = LINE('',#1089,#1090);
#1089 = CARTESIAN_POINT('',(0.75,0.,0.8));
#1090 = VECTOR('',#1091,1.);
#1091 = DIRECTION('',(-1.,0.,0.));
#1092 = ORIENTED_EDGE('',*,*,#1093,.T.);
#1093 = EDGE_CURVE('',#1086,#583,#1094,.T.);
#1094 = LINE('',#1095,#1096);
#1095 = CARTESIAN_POINT('',(0.75,0.,-1.27));
#1096 = VECTOR('',#1097,1.);
#1097 = DIRECTION('',(0.,0.,1.));
#1098 = ORIENTED_EDGE('',*,*,#582,.T.);
#1099 = ORIENTED_EDGE('',*,*,#1069,.F.);
#1100 = PLANE('',#1101);
#1101 = AXIS2_PLACEMENT_3D('',#1102,#1103,#1104);
#1102 = CARTESIAN_POINT('',(0.75,0.,-1.27));
#1103 = DIRECTION('',(0.,-1.,0.));
#1104 = DIRECTION('',(-1.,0.,0.));
#1105 = ADVANCED_FACE('',(#1106),#1117,.T.);
#1106 = FACE_BOUND('',#1107,.T.);
#1107 = EDGE_LOOP('',(#1108,#1114,#1115,#1116));
#1108 = ORIENTED_EDGE('',*,*,#1109,.F.);
#1109 = EDGE_CURVE('',#857,#1086,#1110,.T.);
#1110 = LINE('',#1111,#1112);
#1111 = CARTESIAN_POINT('',(0.75,0.64,0.8));
#1112 = VECTOR('',#1113,1.);
#1113 = DIRECTION('',(0.,-1.,0.));
#1114 = ORIENTED_EDGE('',*,*,#856,.T.);
#1115 = ORIENTED_EDGE('',*,*,#590,.T.);
#1116 = ORIENTED_EDGE('',*,*,#1093,.F.);
#1117 = PLANE('',#1118);
#1118 = AXIS2_PLACEMENT_3D('',#1119,#1120,#1121);
#1119 = CARTESIAN_POINT('',(0.75,0.64,-1.27));
#1120 = DIRECTION('',(1.,0.,0.));
#1121 = DIRECTION('',(0.,-1.,0.));
#1122 = ADVANCED_FACE('',(#1123,#1144),#1150,.F.);
#1123 = FACE_BOUND('',#1124,.F.);
#1124 = EDGE_LOOP('',(#1125,#1126,#1132,#1138));
#1125 = ORIENTED_EDGE('',*,*,#864,.F.);
#1126 = ORIENTED_EDGE('',*,*,#1127,.T.);
#1127 = EDGE_CURVE('',#825,#362,#1128,.T.);
#1128 = LINE('',#1129,#1130);
#1129 = CARTESIAN_POINT('',(0.75,0.64,-0.8));
#1130 = VECTOR('',#1131,1.);
#1131 = DIRECTION('',(-1.,-0.,-0.));
#1132 = ORIENTED_EDGE('',*,*,#1133,.T.);
#1133 = EDGE_CURVE('',#362,#1009,#1134,.T.);
#1134 = LINE('',#1135,#1136);
#1135 = CARTESIAN_POINT('',(-0.75,0.64,-1.27));
#1136 = VECTOR('',#1137,1.);
#1137 = DIRECTION('',(0.,0.,1.));
#1138 = ORIENTED_EDGE('',*,*,#1139,.F.);
#1139 = EDGE_CURVE('',#857,#1009,#1140,.T.);
#1140 = LINE('',#1141,#1142);
#1141 = CARTESIAN_POINT('',(0.75,0.64,0.8));
#1142 = VECTOR('',#1143,1.);
#1143 = DIRECTION('',(-1.,-0.,-0.));
#1144 = FACE_BOUND('',#1145,.F.);
#1145 = EDGE_LOOP('',(#1146,#1147,#1148,#1149));
#1146 = ORIENTED_EDGE('',*,*,#688,.F.);
#1147 = ORIENTED_EDGE('',*,*,#760,.F.);
#1148 = ORIENTED_EDGE('',*,*,#736,.F.);
#1149 = ORIENTED_EDGE('',*,*,#712,.F.);
#1150 = PLANE('',#1151);
#1151 = AXIS2_PLACEMENT_3D('',#1152,#1153,#1154);
#1152 = CARTESIAN_POINT('',(0.75,0.64,-0.8));
#1153 = DIRECTION('',(0.,1.,0.));
#1154 = DIRECTION('',(0.,0.,1.));
#1155 = ADVANCED_FACE('',(#1156),#1162,.F.);
#1156 = FACE_BOUND('',#1157,.F.);
#1157 = EDGE_LOOP('',(#1158,#1159,#1160,#1161));
#1158 = ORIENTED_EDGE('',*,*,#832,.F.);
#1159 = ORIENTED_EDGE('',*,*,#808,.F.);
#1160 = ORIENTED_EDGE('',*,*,#784,.F.);
#1161 = ORIENTED_EDGE('',*,*,#1127,.F.);
#1162 = PLANE('',#1163);
#1163 = AXIS2_PLACEMENT_3D('',#1164,#1165,#1166);
#1164 = CARTESIAN_POINT('',(0.75,-0.64,-0.8));
#1165 = DIRECTION('',(0.,0.,-1.));
#1166 = DIRECTION('',(0.,1.,0.));
#1167 = ADVANCED_FACE('',(#1168),#1174,.F.);
#1168 = FACE_BOUND('',#1169,.F.);
#1169 = EDGE_LOOP('',(#1170,#1171,#1172,#1173));
#1170 = ORIENTED_EDGE('',*,*,#1109,.F.);
#1171 = ORIENTED_EDGE('',*,*,#1139,.T.);
#1172 = ORIENTED_EDGE('',*,*,#1061,.F.);
#1173 = ORIENTED_EDGE('',*,*,#1085,.F.);
#1174 = PLANE('',#1175);
#1175 = AXIS2_PLACEMENT_3D('',#1176,#1177,#1178);
#1176 = CARTESIAN_POINT('',(0.75,0.64,0.8));
#1177 = DIRECTION('',(0.,0.,1.));
#1178 = DIRECTION('',(0.,-1.,0.));
#1179 = ( GEOMETRIC_REPRESENTATION_CONTEXT(3) 
GLOBAL_UNCERTAINTY_ASSIGNED_CONTEXT((#1183)) 
GLOBAL_UNIT_ASSIGNED_CONTEXT((#1180,#1181,#1182)) REPRESENTATION_CONTEXT
('Context #1','3D Context with UNIT and UNCERTAINTY') );
#1180 = ( LENGTH_UNIT() NAMED_UNIT(*) SI_UNIT(.MILLI.,.METRE.) );
#1181 = ( NAMED_UNIT(*) PLANE_ANGLE_UNIT() SI_UNIT($,.RADIAN.) );
#1182 = ( NAMED_UNIT(*) SI_UNIT($,.STERADIAN.) SOLID_ANGLE_UNIT() );
#1183 = UNCERTAINTY_MEASURE_WITH_UNIT(LENGTH_MEASURE(5.E-07),#1180,
  'distance_accuracy_value','confusion accuracy');
#1184 = CONTEXT_DEPENDENT_SHAPE_REPRESENTATION(#1185,#1187);
#1185 = ( REPRESENTATION_RELATIONSHIP('','',#87,#36) 
REPRESENTATION_RELATIONSHIP_WITH_TRANSFORMATION(#1186) 
SHAPE_REPRESENTATION_RELATIONSHIP() );
#1186 = ITEM_DEFINED_TRANSFORMATION('','',#11,#37);
#1187 = PRODUCT_DEFINITION_SHAPE('Placement','Placement of an item',
  #1188);
#1188 = NEXT_ASSEMBLY_USAGE_OCCURRENCE('5223','0','',#31,#82,$);
#1189 = PRODUCT_RELATED_PRODUCT_CATEGORY('part',$,(#84));
#1190 = CONTEXT_DEPENDENT_SHAPE_REPRESENTATION(#1191,#1193);
#1191 = ( REPRESENTATION_RELATIONSHIP('','',#87,#36) 
REPRESENTATION_RELATIONSHIP_WITH_TRANSFORMATION(#1192) 
SHAPE_REPRESENTATION_RELATIONSHIP() );
#1192 = ITEM_DEFINED_TRANSFORMATION('','',#11,#41);
#1193 = PRODUCT_DEFINITION_SHAPE('Placement','Placement of an item',
  #1194);
#1194 = NEXT_ASSEMBLY_USAGE_OCCURRENCE('5224','1','',#31,#82,$);
#1195 = CONTEXT_DEPENDENT_SHAPE_REPRESENTATION(#1196,#1198);
#1196 = ( REPRESENTATION_RELATIONSHIP('','',#87,#36) 
REPRESENTATION_RELATIONSHIP_WITH_TRANSFORMATION(#1197) 
SHAPE_REPRESENTATION_RELATIONSHIP() );
#1197 = ITEM_DEFINED_TRANSFORMATION('','',#11,#45);
#1198 = PRODUCT_DEFINITION_SHAPE('Placement','Placement of an item',
  #1199);
#1199 = NEXT_ASSEMBLY_USAGE_OCCURRENCE('5225','2','',#31,#82,$);
#1200 = CONTEXT_DEPENDENT_SHAPE_REPRESENTATION(#1201,#1203);
#1201 = ( REPRESENTATION_RELATIONSHIP('','',#87,#36) 
REPRESENTATION_RELATIONSHIP_WITH_TRANSFORMATION(#1202) 
SHAPE_REPRESENTATION_RELATIONSHIP() );
#1202 = ITEM_DEFINED_TRANSFORMATION('','',#11,#49);
#1203 = PRODUCT_DEFINITION_SHAPE('Placement','Placement of an item',
  #1204);
#1204 = NEXT_ASSEMBLY_USAGE_OCCURRENCE('5226','3','',#31,#82,$);
#1205 = CONTEXT_DEPENDENT_SHAPE_REPRESENTATION(#1206,#1208);
#1206 = ( REPRESENTATION_RELATIONSHIP('','',#87,#36) 
REPRESENTATION_RELATIONSHIP_WITH_TRANSFORMATION(#1207) 
SHAPE_REPRESENTATION_RELATIONSHIP() );
#1207 = ITEM_DEFINED_TRANSFORMATION('','',#11,#53);
#1208 = PRODUCT_DEFINITION_SHAPE('Placement','Placement of an item',
  #1209);
#1209 = NEXT_ASSEMBLY_USAGE_OCCURRENCE('5227','4','',#31,#82,$);
#1210 = CONTEXT_DEPENDENT_SHAPE_REPRESENTATION(#1211,#1213);
#1211 = ( REPRESENTATION_RELATIONSHIP('','',#87,#36) 
REPRESENTATION_RELATIONSHIP_WITH_TRANSFORMATION(#1212) 
SHAPE_REPRESENTATION_RELATIONSHIP() );
#1212 = ITEM_DEFINED_TRANSFORMATION('','',#11,#57);
#1213 = PRODUCT_DEFINITION_SHAPE('Placement','Placement of an item',
  #1214);
#1214 = NEXT_ASSEMBLY_USAGE_OCCURRENCE('5228','5','',#31,#82,$);
#1215 = CONTEXT_DEPENDENT_SHAPE_REPRESENTATION(#1216,#1218);
#1216 = ( REPRESENTATION_RELATIONSHIP('','',#87,#36) 
REPRESENTATION_RELATIONSHIP_WITH_TRANSFORMATION(#1217) 
SHAPE_REPRESENTATION_RELATIONSHIP() );
#1217 = ITEM_DEFINED_TRANSFORMATION('','',#11,#61);
#1218 = PRODUCT_DEFINITION_SHAPE('Placement','Placement of an item',
  #1219);
#1219 = NEXT_ASSEMBLY_USAGE_OCCURRENCE('5229','6','',#31,#82,$);
#1220 = CONTEXT_DEPENDENT_SHAPE_REPRESENTATION(#1221,#1223);
#1221 = ( REPRESENTATION_RELATIONSHIP('','',#87,#36) 
REPRESENTATION_RELATIONSHIP_WITH_TRANSFORMATION(#1222) 
SHAPE_REPRESENTATION_RELATIONSHIP() );
#1222 = ITEM_DEFINED_TRANSFORMATION('','',#11,#65);
#1223 = PRODUCT_DEFINITION_SHAPE('Placement','Placement of an item',
  #1224);
#1224 = NEXT_ASSEMBLY_USAGE_OCCURRENCE('5230','7','',#31,#82,$);
#1225 = SHAPE_DEFINITION_REPRESENTATION(#1226,#1232);
#1226 = PRODUCT_DEFINITION_SHAPE('','',#1227);
#1227 = PRODUCT_DEFINITION('design','',#1228,#1231);
#1228 = PRODUCT_DEFINITION_FORMATION('','',#1229);
#1229 = PRODUCT('Array001','Array001','',(#1230));
#1230 = PRODUCT_CONTEXT('',#2,'mechanical');
#1231 = PRODUCT_DEFINITION_CONTEXT('part definition',#2,'design');
#1232 = SHAPE_REPRESENTATION('',(#11,#1233,#1237,#1241,#1245,#1249,#1253
    ,#1257,#1261),#1265);
#1233 = AXIS2_PLACEMENT_3D('',#1234,#1235,#1236);
#1234 = CARTESIAN_POINT('',(-8.89,0.,0.));
#1235 = DIRECTION('',(0.,0.,1.));
#1236 = DIRECTION('',(1.,0.,0.));
#1237 = AXIS2_PLACEMENT_3D('',#1238,#1239,#1240);
#1238 = CARTESIAN_POINT('',(-6.35,0.,0.));
#1239 = DIRECTION('',(0.,0.,1.));
#1240 = DIRECTION('',(1.,0.,0.));
#1241 = AXIS2_PLACEMENT_3D('',#1242,#1243,#1244);
#1242 = CARTESIAN_POINT('',(-3.81,0.,0.));
#1243 = DIRECTION('',(0.,0.,1.));
#1244 = DIRECTION('',(1.,0.,0.));
#1245 = AXIS2_PLACEMENT_3D('',#1246,#1247,#1248);
#1246 = CARTESIAN_POINT('',(-1.27,0.,0.));
#1247 = DIRECTION('',(0.,0.,1.));
#1248 = DIRECTION('',(1.,0.,0.));
#1249 = AXIS2_PLACEMENT_3D('',#1250,#1251,#1252);
#1250 = CARTESIAN_POINT('',(1.27,0.,0.));
#1251 = DIRECTION('',(0.,0.,1.));
#1252 = DIRECTION('',(1.,0.,0.));
#1253 = AXIS2_PLACEMENT_3D('',#1254,#1255,#1256);
#1254 = CARTESIAN_POINT('',(3.81,0.,0.));
#1255 = DIRECTION('',(0.,0.,1.));
#1256 = DIRECTION('',(1.,0.,0.));
#1257 = AXIS2_PLACEMENT_3D('',#1258,#1259,#1260);
#1258 = CARTESIAN_POINT('',(6.35,0.,0.));
#1259 = DIRECTION('',(0.,0.,1.));
#1260 = DIRECTION('',(1.,0.,0.));
#1261 = AXIS2_PLACEMENT_3D('',#1262,#1263,#1264);
#1262 = CARTESIAN_POINT('',(8.89,0.,0.));
#1263 = DIRECTION('',(0.,0.,1.));
#1264 = DIRECTION('',(1.,0.,0.));
#1265 = ( GEOMETRIC_REPRESENTATION_CONTEXT(3) 
GLOBAL_UNCERTAINTY_ASSIGNED_CONTEXT((#1269)) 
GLOBAL_UNIT_ASSIGNED_CONTEXT((#1266,#1267,#1268)) REPRESENTATION_CONTEXT
('Context #1','3D Context with UNIT and UNCERTAINTY') );
#1266 = ( LENGTH_UNIT() NAMED_UNIT(*) SI_UNIT(.MILLI.,.METRE.) );
#1267 = ( NAMED_UNIT(*) PLANE_ANGLE_UNIT() SI_UNIT($,.RADIAN.) );
#1268 = ( NAMED_UNIT(*) SI_UNIT($,.STERADIAN.) SOLID_ANGLE_UNIT() );
#1269 = UNCERTAINTY_MEASURE_WITH_UNIT(LENGTH_MEASURE(1.E-07),#1266,
  'distance_accuracy_value','confusion accuracy');
#1270 = CONTEXT_DEPENDENT_SHAPE_REPRESENTATION(#1271,#1273);
#1271 = ( REPRESENTATION_RELATIONSHIP('','',#1232,#10) 
REPRESENTATION_RELATIONSHIP_WITH_TRANSFORMATION(#1272) 
SHAPE_REPRESENTATION_RELATIONSHIP() );
#1272 = ITEM_DEFINED_TRANSFORMATION('','',#11,#19);
#1273 = PRODUCT_DEFINITION_SHAPE('Placement','Placement of an item',
  #1274);
#1274 = NEXT_ASSEMBLY_USAGE_OCCURRENCE('5240','Array001','',#5,#1227,$);
#1275 = PRODUCT_RELATED_PRODUCT_CATEGORY('part',$,(#1229));
#1276 = SHAPE_DEFINITION_REPRESENTATION(#1277,#1283);
#1277 = PRODUCT_DEFINITION_SHAPE('','',#1278);
#1278 = PRODUCT_DEFINITION('design','',#1279,#1282);
#1279 = PRODUCT_DEFINITION_FORMATION('','',#1280);
#1280 = PRODUCT('Body001','Body001','',(#1281));
#1281 = PRODUCT_CONTEXT('',#2,'mechanical');
#1282 = PRODUCT_DEFINITION_CONTEXT('part definition',#2,'design');
#1283 = ADVANCED_BREP_SHAPE_REPRESENTATION('',(#11,#1284),#1626);
#1284 = MANIFOLD_SOLID_BREP('',#1285);
#1285 = CLOSED_SHELL('',(#1286,#1326,#1357,#1388,#1419,#1450,#1472,#1496
    ,#1520,#1544,#1561,#1585,#1602,#1614));
#1286 = ADVANCED_FACE('',(#1287),#1321,.F.);
#1287 = FACE_BOUND('',#1288,.F.);
#1288 = EDGE_LOOP('',(#1289,#1299,#1307,#1315));
#1289 = ORIENTED_EDGE('',*,*,#1290,.T.);
#1290 = EDGE_CURVE('',#1291,#1293,#1295,.T.);
#1291 = VERTEX_POINT('',#1292);
#1292 = CARTESIAN_POINT('',(0.32,8.49,-0.32));
#1293 = VERTEX_POINT('',#1294);
#1294 = CARTESIAN_POINT('',(0.32,-2.75,-0.32));
#1295 = LINE('',#1296,#1297);
#1296 = CARTESIAN_POINT('',(0.32,8.74,-0.32));
#1297 = VECTOR('',#1298,1.);
#1298 = DIRECTION('',(0.,-1.,4.4E-16));
#1299 = ORIENTED_EDGE('',*,*,#1300,.T.);
#1300 = EDGE_CURVE('',#1293,#1301,#1303,.T.);
#1301 = VERTEX_POINT('',#1302);
#1302 = CARTESIAN_POINT('',(0.32,-2.75,0.32));
#1303 = LINE('',#1304,#1305);
#1304 = CARTESIAN_POINT('',(0.32,-2.75,-0.32));
#1305 = VECTOR('',#1306,1.);
#1306 = DIRECTION('',(0.,4.4E-16,1.));
#1307 = ORIENTED_EDGE('',*,*,#1308,.F.);
#1308 = EDGE_CURVE('',#1309,#1301,#1311,.T.);
#1309 = VERTEX_POINT('',#1310);
#1310 = CARTESIAN_POINT('',(0.32,8.49,0.32));
#1311 = LINE('',#1312,#1313);
#1312 = CARTESIAN_POINT('',(0.32,8.74,0.32));
#1313 = VECTOR('',#1314,1.);
#1314 = DIRECTION('',(0.,-1.,4.4E-16));
#1315 = ORIENTED_EDGE('',*,*,#1316,.F.);
#1316 = EDGE_CURVE('',#1291,#1309,#1317,.T.);
#1317 = LINE('',#1318,#1319);
#1318 = CARTESIAN_POINT('',(0.32,8.49,-0.32));
#1319 = VECTOR('',#1320,1.);
#1320 = DIRECTION('',(0.,4.4E-16,1.));
#1321 = PLANE('',#1322);
#1322 = AXIS2_PLACEMENT_3D('',#1323,#1324,#1325);
#1323 = CARTESIAN_POINT('',(0.32,8.74,-0.32));
#1324 = DIRECTION('',(-1.,0.,0.));
#1325 = DIRECTION('',(0.,4.4E-16,1.));
#1326 = ADVANCED_FACE('',(#1327),#1352,.F.);
#1327 = FACE_BOUND('',#1328,.F.);
#1328 = EDGE_LOOP('',(#1329,#1339,#1345,#1346));
#1329 = ORIENTED_EDGE('',*,*,#1330,.T.);
#1330 = EDGE_CURVE('',#1331,#1333,#1335,.T.);
#1331 = VERTEX_POINT('',#1332);
#1332 = CARTESIAN_POINT('',(-0.32,8.49,-0.32));
#1333 = VERTEX_POINT('',#1334);
#1334 = CARTESIAN_POINT('',(-0.32,-2.75,-0.32));
#1335 = LINE('',#1336,#1337);
#1336 = CARTESIAN_POINT('',(-0.32,8.74,-0.32));
#1337 = VECTOR('',#1338,1.);
#1338 = DIRECTION('',(0.,-1.,4.4E-16));
#1339 = ORIENTED_EDGE('',*,*,#1340,.T.);
#1340 = EDGE_CURVE('',#1333,#1293,#1341,.T.);
#1341 = LINE('',#1342,#1343);
#1342 = CARTESIAN_POINT('',(-0.32,-2.75,-0.32));
#1343 = VECTOR('',#1344,1.);
#1344 = DIRECTION('',(1.,0.,0.));
#1345 = ORIENTED_EDGE('',*,*,#1290,.F.);
#1346 = ORIENTED_EDGE('',*,*,#1347,.F.);
#1347 = EDGE_CURVE('',#1331,#1291,#1348,.T.);
#1348 = LINE('',#1349,#1350);
#1349 = CARTESIAN_POINT('',(-0.32,8.49,-0.32));
#1350 = VECTOR('',#1351,1.);
#1351 = DIRECTION('',(1.,0.,0.));
#1352 = PLANE('',#1353);
#1353 = AXIS2_PLACEMENT_3D('',#1354,#1355,#1356);
#1354 = CARTESIAN_POINT('',(-0.32,8.74,-0.32));
#1355 = DIRECTION('',(0.,4.4E-16,1.));
#1356 = DIRECTION('',(1.,0.,0.));
#1357 = ADVANCED_FACE('',(#1358),#1383,.F.);
#1358 = FACE_BOUND('',#1359,.F.);
#1359 = EDGE_LOOP('',(#1360,#1368,#1369,#1377));
#1360 = ORIENTED_EDGE('',*,*,#1361,.F.);
#1361 = EDGE_CURVE('',#1291,#1362,#1364,.T.);
#1362 = VERTEX_POINT('',#1363);
#1363 = CARTESIAN_POINT('',(0.22,8.74,-0.22));
#1364 = LINE('',#1365,#1366);
#1365 = CARTESIAN_POINT('',(0.237272727273,8.696818181818,
    -0.237272727273));
#1366 = VECTOR('',#1367,1.);
#1367 = DIRECTION('',(-0.348155311911,0.870388279778,0.348155311911));
#1368 = ORIENTED_EDGE('',*,*,#1316,.T.);
#1369 = ORIENTED_EDGE('',*,*,#1370,.T.);
#1370 = EDGE_CURVE('',#1309,#1371,#1373,.T.);
#1371 = VERTEX_POINT('',#1372);
#1372 = CARTESIAN_POINT('',(0.22,8.74,0.22));
#1373 = LINE('',#1374,#1375);
#1374 = CARTESIAN_POINT('',(0.237272727273,8.696818181818,0.237272727273
    ));
#1375 = VECTOR('',#1376,1.);
#1376 = DIRECTION('',(-0.348155311911,0.870388279778,-0.348155311911));
#1377 = ORIENTED_EDGE('',*,*,#1378,.F.);
#1378 = EDGE_CURVE('',#1362,#1371,#1379,.T.);
#1379 = LINE('',#1380,#1381);
#1380 = CARTESIAN_POINT('',(0.22,8.74,-0.32));
#1381 = VECTOR('',#1382,1.);
#1382 = DIRECTION('',(0.,4.4E-16,1.));
#1383 = PLANE('',#1384);
#1384 = AXIS2_PLACEMENT_3D('',#1385,#1386,#1387);
#1385 = CARTESIAN_POINT('',(0.27,8.615,-0.32));
#1386 = DIRECTION('',(-0.928476690885,-0.371390676354,7.E-17));
#1387 = DIRECTION('',(-8.879973508631E-17,4.104801059655E-16,1.));
#1388 = ADVANCED_FACE('',(#1389),#1414,.T.);
#1389 = FACE_BOUND('',#1390,.T.);
#1390 = EDGE_LOOP('',(#1391,#1399,#1400,#1408));
#1391 = ORIENTED_EDGE('',*,*,#1392,.F.);
#1392 = EDGE_CURVE('',#1293,#1393,#1395,.T.);
#1393 = VERTEX_POINT('',#1394);
#1394 = CARTESIAN_POINT('',(0.22,-3.,-0.22));
#1395 = LINE('',#1396,#1397);
#1396 = CARTESIAN_POINT('',(0.237272727273,-2.956818181818,
    -0.237272727273));
#1397 = VECTOR('',#1398,1.);
#1398 = DIRECTION('',(-0.348155311911,-0.870388279778,0.348155311911));
#1399 = ORIENTED_EDGE('',*,*,#1300,.T.);
#1400 = ORIENTED_EDGE('',*,*,#1401,.T.);
#1401 = EDGE_CURVE('',#1301,#1402,#1404,.T.);
#1402 = VERTEX_POINT('',#1403);
#1403 = CARTESIAN_POINT('',(0.22,-3.,0.22));
#1404 = LINE('',#1405,#1406);
#1405 = CARTESIAN_POINT('',(0.237272727273,-2.956818181818,
    0.237272727273));
#1406 = VECTOR('',#1407,1.);
#1407 = DIRECTION('',(-0.348155311911,-0.870388279778,-0.348155311911));
#1408 = ORIENTED_EDGE('',*,*,#1409,.F.);
#1409 = EDGE_CURVE('',#1393,#1402,#1410,.T.);
#1410 = LINE('',#1411,#1412);
#1411 = CARTESIAN_POINT('',(0.22,-3.,-0.32));
#1412 = VECTOR('',#1413,1.);
#1413 = DIRECTION('',(0.,4.4E-16,1.));
#1414 = PLANE('',#1415);
#1415 = AXIS2_PLACEMENT_3D('',#1416,#1417,#1418);
#1416 = CARTESIAN_POINT('',(0.27,-2.875,-0.32));
#1417 = DIRECTION('',(0.928476690885,-0.371390676354,8.E-17));
#1418 = DIRECTION('',(7.813565783263E-17,4.107457368669E-16,1.));
#1419 = ADVANCED_FACE('',(#1420),#1445,.F.);
#1420 = FACE_BOUND('',#1421,.F.);
#1421 = EDGE_LOOP('',(#1422,#1423,#1431,#1439));
#1422 = ORIENTED_EDGE('',*,*,#1308,.T.);
#1423 = ORIENTED_EDGE('',*,*,#1424,.T.);
#1424 = EDGE_CURVE('',#1301,#1425,#1427,.T.);
#1425 = VERTEX_POINT('',#1426);
#1426 = CARTESIAN_POINT('',(-0.32,-2.75,0.32));
#1427 = LINE('',#1428,#1429);
#1428 = CARTESIAN_POINT('',(0.32,-2.75,0.32));
#1429 = VECTOR('',#1430,1.);
#1430 = DIRECTION('',(-1.,0.,0.));
#1431 = ORIENTED_EDGE('',*,*,#1432,.F.);
#1432 = EDGE_CURVE('',#1433,#1425,#1435,.T.);
#1433 = VERTEX_POINT('',#1434);
#1434 = CARTESIAN_POINT('',(-0.32,8.49,0.32));
#1435 = LINE('',#1436,#1437);
#1436 = CARTESIAN_POINT('',(-0.32,8.74,0.32));
#1437 = VECTOR('',#1438,1.);
#1438 = DIRECTION('',(0.,-1.,4.4E-16));
#1439 = ORIENTED_EDGE('',*,*,#1440,.F.);
#1440 = EDGE_CURVE('',#1309,#1433,#1441,.T.);
#1441 = LINE('',#1442,#1443);
#1442 = CARTESIAN_POINT('',(0.32,8.49,0.32));
#1443 = VECTOR('',#1444,1.);
#1444 = DIRECTION('',(-1.,0.,0.));
#1445 = PLANE('',#1446);
#1446 = AXIS2_PLACEMENT_3D('',#1447,#1448,#1449);
#1447 = CARTESIAN_POINT('',(0.32,8.74,0.32));
#1448 = DIRECTION('',(0.,-4.4E-16,-1.));
#1449 = DIRECTION('',(-1.,0.,0.));
#1450 = ADVANCED_FACE('',(#1451),#1467,.F.);
#1451 = FACE_BOUND('',#1452,.F.);
#1452 = EDGE_LOOP('',(#1453,#1454,#1460,#1461));
#1453 = ORIENTED_EDGE('',*,*,#1432,.T.);
#1454 = ORIENTED_EDGE('',*,*,#1455,.T.);
#1455 = EDGE_CURVE('',#1425,#1333,#1456,.T.);
#1456 = LINE('',#1457,#1458);
#1457 = CARTESIAN_POINT('',(-0.32,-2.75,0.32));
#1458 = VECTOR('',#1459,1.);
#1459 = DIRECTION('',(0.,-4.4E-16,-1.));
#1460 = ORIENTED_EDGE('',*,*,#1330,.F.);
#1461 = ORIENTED_EDGE('',*,*,#1462,.F.);
#1462 = EDGE_CURVE('',#1433,#1331,#1463,.T.);
#1463 = LINE('',#1464,#1465);
#1464 = CARTESIAN_POINT('',(-0.32,8.49,0.32));
#1465 = VECTOR('',#1466,1.);
#1466 = DIRECTION('',(0.,-4.4E-16,-1.));
#1467 = PLANE('',#1468);
#1468 = AXIS2_PLACEMENT_3D('',#1469,#1470,#1471);
#1469 = CARTESIAN_POINT('',(-0.32,8.74,0.32));
#1470 = DIRECTION('',(1.,0.,0.));
#1471 = DIRECTION('',(0.,-4.4E-16,-1.));
#1472 = ADVANCED_FACE('',(#1473),#1491,.F.);
#1473 = FACE_BOUND('',#1474,.F.);
#1474 = EDGE_LOOP('',(#1475,#1483,#1484,#1485));
#1475 = ORIENTED_EDGE('',*,*,#1476,.F.);
#1476 = EDGE_CURVE('',#1331,#1477,#1479,.T.);
#1477 = VERTEX_POINT('',#1478);
#1478 = CARTESIAN_POINT('',(-0.22,8.74,-0.22));
#1479 = LINE('',#1480,#1481);
#1480 = CARTESIAN_POINT('',(-0.237272727273,8.696818181818,
    -0.237272727273));
#1481 = VECTOR('',#1482,1.);
#1482 = DIRECTION('',(0.348155311911,0.870388279778,0.348155311911));
#1483 = ORIENTED_EDGE('',*,*,#1347,.T.);
#1484 = ORIENTED_EDGE('',*,*,#1361,.T.);
#1485 = ORIENTED_EDGE('',*,*,#1486,.F.);
#1486 = EDGE_CURVE('',#1477,#1362,#1487,.T.);
#1487 = LINE('',#1488,#1489);
#1488 = CARTESIAN_POINT('',(-0.32,8.74,-0.22));
#1489 = VECTOR('',#1490,1.);
#1490 = DIRECTION('',(1.,0.,0.));
#1491 = PLANE('',#1492);
#1492 = AXIS2_PLACEMENT_3D('',#1493,#1494,#1495);
#1493 = CARTESIAN_POINT('',(-0.32,8.615,-0.27));
#1494 = DIRECTION('',(0.,-0.371390676354,0.928476690885));
#1495 = DIRECTION('',(1.,0.,0.));
#1496 = ADVANCED_FACE('',(#1497),#1515,.T.);
#1497 = FACE_BOUND('',#1498,.T.);
#1498 = EDGE_LOOP('',(#1499,#1507,#1508,#1509));
#1499 = ORIENTED_EDGE('',*,*,#1500,.F.);
#1500 = EDGE_CURVE('',#1333,#1501,#1503,.T.);
#1501 = VERTEX_POINT('',#1502);
#1502 = CARTESIAN_POINT('',(-0.22,-3.,-0.22));
#1503 = LINE('',#1504,#1505);
#1504 = CARTESIAN_POINT('',(-0.237272727273,-2.956818181818,
    -0.237272727273));
#1505 = VECTOR('',#1506,1.);
#1506 = DIRECTION('',(0.348155311911,-0.870388279778,0.348155311911));
#1507 = ORIENTED_EDGE('',*,*,#1340,.T.);
#1508 = ORIENTED_EDGE('',*,*,#1392,.T.);
#1509 = ORIENTED_EDGE('',*,*,#1510,.F.);
#1510 = EDGE_CURVE('',#1501,#1393,#1511,.T.);
#1511 = LINE('',#1512,#1513);
#1512 = CARTESIAN_POINT('',(-0.32,-3.,-0.22));
#1513 = VECTOR('',#1514,1.);
#1514 = DIRECTION('',(1.,0.,0.));
#1515 = PLANE('',#1516);
#1516 = AXIS2_PLACEMENT_3D('',#1517,#1518,#1519);
#1517 = CARTESIAN_POINT('',(-0.32,-2.875,-0.27));
#1518 = DIRECTION('',(0.,-0.371390676354,-0.928476690885));
#1519 = DIRECTION('',(1.,0.,0.));
#1520 = ADVANCED_FACE('',(#1521),#1539,.T.);
#1521 = FACE_BOUND('',#1522,.T.);
#1522 = EDGE_LOOP('',(#1523,#1524,#1525,#1533));
#1523 = ORIENTED_EDGE('',*,*,#1378,.F.);
#1524 = ORIENTED_EDGE('',*,*,#1486,.F.);
#1525 = ORIENTED_EDGE('',*,*,#1526,.F.);
#1526 = EDGE_CURVE('',#1527,#1477,#1529,.T.);
#1527 = VERTEX_POINT('',#1528);
#1528 = CARTESIAN_POINT('',(-0.22,8.74,0.22));
#1529 = LINE('',#1530,#1531);
#1530 = CARTESIAN_POINT('',(-0.22,8.74,0.32));
#1531 = VECTOR('',#1532,1.);
#1532 = DIRECTION('',(0.,-4.4E-16,-1.));
#1533 = ORIENTED_EDGE('',*,*,#1534,.F.);
#1534 = EDGE_CURVE('',#1371,#1527,#1535,.T.);
#1535 = LINE('',#1536,#1537);
#1536 = CARTESIAN_POINT('',(0.32,8.74,0.22));
#1537 = VECTOR('',#1538,1.);
#1538 = DIRECTION('',(-1.,0.,0.));
#1539 = PLANE('',#1540);
#1540 = AXIS2_PLACEMENT_3D('',#1541,#1542,#1543);
#1541 = CARTESIAN_POINT('',(-1.E-16,8.74,-3.552713678801E-15));
#1542 = DIRECTION('',(0.,1.,0.));
#1543 = DIRECTION('',(0.,0.,1.));
#1544 = ADVANCED_FACE('',(#1545),#1556,.F.);
#1545 = FACE_BOUND('',#1546,.F.);
#1546 = EDGE_LOOP('',(#1547,#1548,#1549,#1555));
#1547 = ORIENTED_EDGE('',*,*,#1370,.F.);
#1548 = ORIENTED_EDGE('',*,*,#1440,.T.);
#1549 = ORIENTED_EDGE('',*,*,#1550,.T.);
#1550 = EDGE_CURVE('',#1433,#1527,#1551,.T.);
#1551 = LINE('',#1552,#1553);
#1552 = CARTESIAN_POINT('',(-0.237272727273,8.696818181818,
    0.237272727273));
#1553 = VECTOR('',#1554,1.);
#1554 = DIRECTION('',(0.348155311911,0.870388279778,-0.348155311911));
#1555 = ORIENTED_EDGE('',*,*,#1534,.F.);
#1556 = PLANE('',#1557);
#1557 = AXIS2_PLACEMENT_3D('',#1558,#1559,#1560);
#1558 = CARTESIAN_POINT('',(0.32,8.615,0.27));
#1559 = DIRECTION('',(0.,-0.371390676354,-0.928476690885));
#1560 = DIRECTION('',(-1.,0.,0.));
#1561 = ADVANCED_FACE('',(#1562),#1580,.F.);
#1562 = FACE_BOUND('',#1563,.F.);
#1563 = EDGE_LOOP('',(#1564,#1565,#1566,#1574));
#1564 = ORIENTED_EDGE('',*,*,#1409,.F.);
#1565 = ORIENTED_EDGE('',*,*,#1510,.F.);
#1566 = ORIENTED_EDGE('',*,*,#1567,.F.);
#1567 = EDGE_CURVE('',#1568,#1501,#1570,.T.);
#1568 = VERTEX_POINT('',#1569);
#1569 = CARTESIAN_POINT('',(-0.22,-3.,0.22));
#1570 = LINE('',#1571,#1572);
#1571 = CARTESIAN_POINT('',(-0.22,-3.,0.32));
#1572 = VECTOR('',#1573,1.);
#1573 = DIRECTION('',(0.,-4.4E-16,-1.));
#1574 = ORIENTED_EDGE('',*,*,#1575,.F.);
#1575 = EDGE_CURVE('',#1402,#1568,#1576,.T.);
#1576 = LINE('',#1577,#1578);
#1577 = CARTESIAN_POINT('',(0.32,-3.,0.22));
#1578 = VECTOR('',#1579,1.);
#1579 = DIRECTION('',(-1.,0.,0.));
#1580 = PLANE('',#1581);
#1581 = AXIS2_PLACEMENT_3D('',#1582,#1583,#1584);
#1582 = CARTESIAN_POINT('',(-1.E-16,-3.,4.440892098501E-16));
#1583 = DIRECTION('',(0.,1.,0.));
#1584 = DIRECTION('',(0.,0.,1.));
#1585 = ADVANCED_FACE('',(#1586),#1597,.T.);
#1586 = FACE_BOUND('',#1587,.T.);
#1587 = EDGE_LOOP('',(#1588,#1589,#1590,#1596));
#1588 = ORIENTED_EDGE('',*,*,#1401,.F.);
#1589 = ORIENTED_EDGE('',*,*,#1424,.T.);
#1590 = ORIENTED_EDGE('',*,*,#1591,.T.);
#1591 = EDGE_CURVE('',#1425,#1568,#1592,.T.);
#1592 = LINE('',#1593,#1594);
#1593 = CARTESIAN_POINT('',(-0.237272727273,-2.956818181818,
    0.237272727273));
#1594 = VECTOR('',#1595,1.);
#1595 = DIRECTION('',(0.348155311911,-0.870388279778,-0.348155311911));
#1596 = ORIENTED_EDGE('',*,*,#1575,.F.);
#1597 = PLANE('',#1598);
#1598 = AXIS2_PLACEMENT_3D('',#1599,#1600,#1601);
#1599 = CARTESIAN_POINT('',(0.32,-2.875,0.27));
#1600 = DIRECTION('',(0.,-0.371390676354,0.928476690885));
#1601 = DIRECTION('',(-1.,0.,0.));
#1602 = ADVANCED_FACE('',(#1603),#1609,.F.);
#1603 = FACE_BOUND('',#1604,.F.);
#1604 = EDGE_LOOP('',(#1605,#1606,#1607,#1608));
#1605 = ORIENTED_EDGE('',*,*,#1550,.F.);
#1606 = ORIENTED_EDGE('',*,*,#1462,.T.);
#1607 = ORIENTED_EDGE('',*,*,#1476,.T.);
#1608 = ORIENTED_EDGE('',*,*,#1526,.F.);
#1609 = PLANE('',#1610);
#1610 = AXIS2_PLACEMENT_3D('',#1611,#1612,#1613);
#1611 = CARTESIAN_POINT('',(-0.27,8.615,0.32));
#1612 = DIRECTION('',(0.928476690885,-0.371390676354,7.E-17));
#1613 = DIRECTION('',(-8.879973508631E-17,-4.104801059655E-16,-1.));
#1614 = ADVANCED_FACE('',(#1615),#1621,.T.);
#1615 = FACE_BOUND('',#1616,.T.);
#1616 = EDGE_LOOP('',(#1617,#1618,#1619,#1620));
#1617 = ORIENTED_EDGE('',*,*,#1591,.F.);
#1618 = ORIENTED_EDGE('',*,*,#1455,.T.);
#1619 = ORIENTED_EDGE('',*,*,#1500,.T.);
#1620 = ORIENTED_EDGE('',*,*,#1567,.F.);
#1621 = PLANE('',#1622);
#1622 = AXIS2_PLACEMENT_3D('',#1623,#1624,#1625);
#1623 = CARTESIAN_POINT('',(-0.27,-2.875,0.32));
#1624 = DIRECTION('',(-0.928476690885,-0.371390676354,8.E-17));
#1625 = DIRECTION('',(7.813565783263E-17,-4.107457368669E-16,-1.));
#1626 = ( GEOMETRIC_REPRESENTATION_CONTEXT(3) 
GLOBAL_UNCERTAINTY_ASSIGNED_CONTEXT((#1630)) 
GLOBAL_UNIT_ASSIGNED_CONTEXT((#1627,#1628,#1629)) REPRESENTATION_CONTEXT
('Context #1','3D Context with UNIT and UNCERTAINTY') );
#1627 = ( LENGTH_UNIT() NAMED_UNIT(*) SI_UNIT(.MILLI.,.METRE.) );
#1628 = ( NAMED_UNIT(*) PLANE_ANGLE_UNIT() SI_UNIT($,.RADIAN.) );
#1629 = ( NAMED_UNIT(*) SI_UNIT($,.STERADIAN.) SOLID_ANGLE_UNIT() );
#1630 = UNCERTAINTY_MEASURE_WITH_UNIT(LENGTH_MEASURE(1.E-07),#1627,
  'distance_accuracy_value','confusion accuracy');
#1631 = CONTEXT_DEPENDENT_SHAPE_REPRESENTATION(#1632,#1634);
#1632 = ( REPRESENTATION_RELATIONSHIP('','',#1283,#1232) 
REPRESENTATION_RELATIONSHIP_WITH_TRANSFORMATION(#1633) 
SHAPE_REPRESENTATION_RELATIONSHIP() );
#1633 = ITEM_DEFINED_TRANSFORMATION('','',#11,#1233);
#1634 = PRODUCT_DEFINITION_SHAPE('Placement','Placement of an item',
  #1635);
#1635 = NEXT_ASSEMBLY_USAGE_OCCURRENCE('5232','0','',#1227,#1278,$);
#1636 = PRODUCT_RELATED_PRODUCT_CATEGORY('part',$,(#1280));
#1637 = CONTEXT_DEPENDENT_SHAPE_REPRESENTATION(#1638,#1640);
#1638 = ( REPRESENTATION_RELATIONSHIP('','',#1283,#1232) 
REPRESENTATION_RELATIONSHIP_WITH_TRANSFORMATION(#1639) 
SHAPE_REPRESENTATION_RELATIONSHIP() );
#1639 = ITEM_DEFINED_TRANSFORMATION('','',#11,#1237);
#1640 = PRODUCT_DEFINITION_SHAPE('Placement','Placement of an item',
  #1641);
#1641 = NEXT_ASSEMBLY_USAGE_OCCURRENCE('5233','1','',#1227,#1278,$);
#1642 = CONTEXT_DEPENDENT_SHAPE_REPRESENTATION(#1643,#1645);
#1643 = ( REPRESENTATION_RELATIONSHIP('','',#1283,#1232) 
REPRESENTATION_RELATIONSHIP_WITH_TRANSFORMATION(#1644) 
SHAPE_REPRESENTATION_RELATIONSHIP() );
#1644 = ITEM_DEFINED_TRANSFORMATION('','',#11,#1241);
#1645 = PRODUCT_DEFINITION_SHAPE('Placement','Placement of an item',
  #1646);
#1646 = NEXT_ASSEMBLY_USAGE_OCCURRENCE('5234','2','',#1227,#1278,$);
#1647 = CONTEXT_DEPENDENT_SHAPE_REPRESENTATION(#1648,#1650);
#1648 = ( REPRESENTATION_RELATIONSHIP('','',#1283,#1232) 
REPRESENTATION_RELATIONSHIP_WITH_TRANSFORMATION(#1649) 
SHAPE_REPRESENTATION_RELATIONSHIP() );
#1649 = ITEM_DEFINED_TRANSFORMATION('','',#11,#1245);
#1650 = PRODUCT_DEFINITION_SHAPE('Placement','Placement of an item',
  #1651);
#1651 = NEXT_ASSEMBLY_USAGE_OCCURRENCE('5235','3','',#1227,#1278,$);
#1652 = CONTEXT_DEPENDENT_SHAPE_REPRESENTATION(#1653,#1655);
#1653 = ( REPRESENTATION_RELATIONSHIP('','',#1283,#1232) 
REPRESENTATION_RELATIONSHIP_WITH_TRANSFORMATION(#1654) 
SHAPE_REPRESENTATION_RELATIONSHIP() );
#1654 = ITEM_DEFINED_TRANSFORMATION('','',#11,#1249);
#1655 = PRODUCT_DEFINITION_SHAPE('Placement','Placement of an item',
  #1656);
#1656 = NEXT_ASSEMBLY_USAGE_OCCURRENCE('5236','4','',#1227,#1278,$);
#1657 = CONTEXT_DEPENDENT_SHAPE_REPRESENTATION(#1658,#1660);
#1658 = ( REPRESENTATION_RELATIONSHIP('','',#1283,#1232) 
REPRESENTATION_RELATIONSHIP_WITH_TRANSFORMATION(#1659) 
SHAPE_REPRESENTATION_RELATIONSHIP() );
#1659 = ITEM_DEFINED_TRANSFORMATION('','',#11,#1253);
#1660 = PRODUCT_DEFINITION_SHAPE('Placement','Placement of an item',
  #1661);
#1661 = NEXT_ASSEMBLY_USAGE_OCCURRENCE('5237','5','',#1227,#1278,$);
#1662 = CONTEXT_DEPENDENT_SHAPE_REPRESENTATION(#1663,#1665);
#1663 = ( REPRESENTATION_RELATIONSHIP('','',#1283,#1232) 
REPRESENTATION_RELATIONSHIP_WITH_TRANSFORMATION(#1664) 
SHAPE_REPRESENTATION_RELATIONSHIP() );
#1664 = ITEM_DEFINED_TRANSFORMATION('','',#11,#1257);
#1665 = PRODUCT_DEFINITION_SHAPE('Placement','Placement of an item',
  #1666);
#1666 = NEXT_ASSEMBLY_USAGE_OCCURRENCE('5238','6','',#1227,#1278,$);
#1667 = CONTEXT_DEPENDENT_SHAPE_REPRESENTATION(#1668,#1670);
#1668 = ( REPRESENTATION_RELATIONSHIP('','',#1283,#1232) 
REPRESENTATION_RELATIONSHIP_WITH_TRANSFORMATION(#1669) 
SHAPE_REPRESENTATION_RELATIONSHIP() );
#1669 = ITEM_DEFINED_TRANSFORMATION('','',#11,#1261);
#1670 = PRODUCT_DEFINITION_SHAPE('Placement','Placement of an item',
  #1671);
#1671 = NEXT_ASSEMBLY_USAGE_OCCURRENCE('5239','7','',#1227,#1278,$);
#1672 = MECHANICAL_DESIGN_GEOMETRIC_PRESENTATION_REPRESENTATION('',(
    #1673),#1626);
#1673 = STYLED_ITEM('color',(#1674),#1284);
#1674 = PRESENTATION_STYLE_ASSIGNMENT((#1675,#1681));
#1675 = SURFACE_STYLE_USAGE(.BOTH.,#1676);
#1676 = SURFACE_SIDE_STYLE('',(#1677));
#1677 = SURFACE_STYLE_FILL_AREA(#1678);
#1678 = FILL_AREA_STYLE('',(#1679));
#1679 = FILL_AREA_STYLE_COLOUR('',#1680);
#1680 = COLOUR_RGB('',1.,0.807843143701,0.498039215105);
#1681 = CURVE_STYLE('',#1682,POSITIVE_LENGTH_MEASURE(0.1),#1683);
#1682 = DRAUGHTING_PRE_DEFINED_CURVE_FONT('continuous');
#1683 = COLOUR_RGB('',9.803921802644E-02,9.803921802644E-02,
  9.803921802644E-02);
#1684 = MECHANICAL_DESIGN_GEOMETRIC_PRESENTATION_REPRESENTATION('',(
    #1685),#1179);
#1685 = STYLED_ITEM('color',(#1686),#88);
#1686 = PRESENTATION_STYLE_ASSIGNMENT((#1687,#1693));
#1687 = SURFACE_STYLE_USAGE(.BOTH.,#1688);
#1688 = SURFACE_SIDE_STYLE('',(#1689));
#1689 = SURFACE_STYLE_FILL_AREA(#1690);
#1690 = FILL_AREA_STYLE('',(#1691));
#1691 = FILL_AREA_STYLE_COLOUR('',#1692);
#1692 = COLOUR_RGB('',0.250980406631,0.250980406631,0.250980406631);
#1693 = CURVE_STYLE('',#1694,POSITIVE_LENGTH_MEASURE(0.1),#1683);
#1694 = DRAUGHTING_PRE_DEFINED_CURVE_FONT('continuous');
ENDSEC;
END-ISO-10303-21;
